<?xml version="1.0" encoding="UTF-8"?>
<svg version="1.1" xmlns="http://www.w3.org/2000/svg" width="180" height="90">
<path d="M0 0 C56.76 0 113.52 0 172 0 C172 8 172 8 170.3125 10 C167.68833222 11.13477525 165.82791389 11.07503586 163 11 C163.02356567 12.84561523 163.02356567 12.84561523 163.04760742 14.72851562 C163.10216262 19.32057067 163.13644281 23.91259741 163.16479492 28.50488281 C163.17982344 30.4873538 163.20025198 32.46979186 163.22631836 34.45214844 C163.26296383 37.31193193 163.27978604 40.17127344 163.29296875 43.03125 C163.30845261 43.90865845 163.32393646 44.78606689 163.33988953 45.69006348 C163.34182217 52.85681773 161.93779645 58.17635374 157.8125 64.1875 C153.0461439 68.9538561 148.86048648 72.24623478 141.9375 72.625 C137.64776126 72.37344125 134.60322014 71.38941585 131.2890625 68.625 C129.34279802 66.17152721 128.85176112 64.03649352 128.734375 60.9375 C129.19102873 57.60661398 130.44390448 56.09730915 133 54 C136.25 53.6875 136.25 53.6875 139 54 C139.66 56.31 140.32 58.62 141 61 C143.37374861 61.33425735 143.37374861 61.33425735 146 61 C148.11845369 59.2102394 148.91111546 57.69141877 149.26452637 54.94229126 C149.36504565 52.29631793 149.36295144 49.66720704 149.328125 47.01953125 C149.32531525 45.56663948 149.32531525 45.56663948 149.32244873 44.08439636 C149.31573449 42.04101103 149.30183247 39.99763841 149.28125 37.9543457 C149.25001337 34.81384445 149.24027061 31.67384453 149.234375 28.53320312 C149.22520835 26.549473 149.21483365 24.565748 149.203125 22.58203125 C149.19675018 21.16492607 149.19675018 21.16492607 149.19024658 19.7191925 C149.18063904 18.85126572 149.17103149 17.98333893 149.16113281 17.08911133 C149.15430481 16.32174149 149.14747681 15.55437164 149.14044189 14.76374817 C149.1898086 12.97355907 149.1898086 12.97355907 148 12 C146.44051458 11.84313751 144.87457332 11.74923361 143.30859375 11.68359375 C142.36435547 11.64169922 141.42011719 11.59980469 140.44726562 11.55664062 C139.45404297 11.51732422 138.46082031 11.47800781 137.4375 11.4375 C136.44041016 11.39431641 135.44332031 11.35113281 134.41601562 11.30664062 C131.9441585 11.20019702 129.4721969 11.09818072 127 11 C128.11384609 14.34153826 128.47882293 14.526736 131.3125 16.25 C135.15815413 18.91663671 137.531139 21.50650214 139 26 C139.87010512 31.57046677 139.62937202 36.51593534 136.390625 41.33984375 C130.45180213 48.42973061 124.32419931 52.39888072 115.125 53.4375 C109.25668247 53.16025665 103.4806597 51.20503085 99.06640625 47.28125 C94.16883387 41.73771484 93.70606751 37.23905162 93.78515625 29.9453125 C94.15203905 24.9156828 96.03250589 22.16099293 99.1875 18.375 C102 16 102 16 110 12 C95.15 11.505 95.15 11.505 80 11 C81.14410389 14.43231166 82.09499662 15.07080321 84.875 17.25 C89.88781215 21.52616234 91.67250303 24.88877876 92.375 31.5625 C91.69469133 37.79866277 88.50130828 42.70644441 84 47 C77.19918484 52.03964789 71.45005641 53.76439655 63 53 C56.33954434 51.4895038 52.38646886 48.32712082 48.39453125 42.76171875 C45.73493482 37.49467484 46.32472987 31.73979608 47 26 C48.98246479 20.08931793 52.84683053 16.94393967 58.1328125 13.91015625 C60 13 60 13 63 12 C57.72 12 52.44 12 47 12 C47.12375 13.485 47.2475 14.97 47.375 16.5 C47.36638962 22.58753529 45.22349088 25.78589466 41 30 C35.6771818 35.20365063 30.26259898 36.01372113 23 37 C22.67 40.96 22.34 44.92 22 49 C25.465 49.495 25.465 49.495 29 50 C29.25 52.8125 29.25 52.8125 29 56 C26.91739237 58.04630038 25.5505163 58.91650179 22.64990234 59.35644531 C21.80379395 59.34709961 20.95768555 59.33775391 20.0859375 59.328125 C18.69761719 59.32039063 18.69761719 59.32039063 17.28125 59.3125 C15.84265625 59.2815625 15.84265625 59.2815625 14.375 59.25 C13.40820312 59.24484375 12.44140625 59.2396875 11.4453125 59.234375 C4.30928571 59.15464286 4.30928571 59.15464286 2 58 C2.33 55.36 2.66 52.72 3 50 C5.97 49.505 5.97 49.505 9 49 C8.67 37.12 8.34 25.24 8 13 C5.36 12.01 2.72 11.02 0 10 C0 6.7 0 3.4 0 0 Z M22 11 C22 16.28 22 21.56 22 27 C28.54105518 26.52466179 28.54105518 26.52466179 33 23 C33.56619391 19.10741688 33.62346631 16.94766879 31.4375 13.625 C28.50276388 11.41532877 28.50276388 11.41532877 22 11 Z M61 24.0625 C59.34709466 28.91790944 59.38827698 32.48525729 61.3125 37.25 C63.19459031 40.60236673 63.19459031 40.60236673 66 43 C69.09521287 43.3930429 71.04236536 43.61295044 74 43 C76.75738576 40.86302603 77.74850804 39.30296785 78.41015625 35.875 C78.68917705 31.63960731 78.34001383 28.84341466 75.625 25.5 C72.03718022 22.08302878 69.91852003 21.57834995 64.91015625 21.66015625 C62.75368091 21.85173362 62.75368091 21.85173362 61 24.0625 Z M109.28125 23.19140625 C106.66257578 26.88788846 107.42203611 31.68986503 108 36 C109.20311593 38.80185107 110.83380055 40.83380055 113 43 C115.03270562 43.23820921 115.03270562 43.23820921 117.375 43.25 C118.16648437 43.27578125 118.95796875 43.3015625 119.7734375 43.328125 C122.04750192 43.16697335 122.04750192 43.16697335 123.734375 41.75390625 C126.06569305 38.52315994 126.11310899 34.8922798 126 31 C124.55212093 26.88497526 122.98698324 23.93961347 119 22 C115.57610908 21.50097136 112.24520571 21.13684604 109.28125 23.19140625 Z " fill="#D0B889" transform="translate(4,13)"/>
<path d="M0 0 C14.19 0 28.38 0 43 0 C43 2.31 43 4.62 43 7 C42.29875 7.08636719 41.5975 7.17273438 40.875 7.26171875 C34.43864797 8.21492849 28.85289264 9.43257163 24 14 C22.20081143 16.82034966 21 19.59250636 21 23 C22.98 23 24.96 23 27 23 C27.34611328 22.09507813 27.34611328 22.09507813 27.69921875 21.171875 C31.24346489 12.48637063 31.24346489 12.48637063 36 10 C38.81536078 9.40488309 41.19249756 9.33941119 44 10 C46.8125 12.1875 46.8125 12.1875 49 15 C49.598125 15.721875 50.19625 16.44375 50.8125 17.1875 C52.84645183 22.00475434 52.86295617 27.20283173 51.3203125 32.203125 C50.62303964 33.83673569 49.82160803 35.42525127 49 37 C49.66 37 50.32 37 51 37 C51 36.01 51 35.02 51 34 C53.31 34 55.62 34 58 34 C59.9202046 27.33304963 59.69679171 20.40488031 57 14 C60.75394636 17.63285132 62.1600357 19.4475428 62.3125 24.6875 C62.2160479 30.79028742 60.33056296 34.51990977 56.234375 38.87890625 C50.68441171 44.11204093 45.68052582 46.58445676 38.125 47.4375 C32.25668247 47.16025665 26.4806597 45.20503085 22.06640625 41.28125 C17.16883387 35.73771484 16.70606751 31.23905162 16.78515625 23.9453125 C17.15203905 18.9156828 19.03250589 16.16099293 22.1875 12.375 C25 10 25 10 33 6 C18.15 5.505 18.15 5.505 3 5 C4.14410389 8.43231166 5.09499662 9.07080321 7.875 11.25 C12.88781215 15.52616234 14.67250303 18.88877876 15.375 25.5625 C14.69469133 31.79866277 11.50130828 36.70644441 7 41 C0.19918484 46.03964789 -5.54994359 47.76439655 -14 47 C-20.66045566 45.4895038 -24.61353114 42.32712082 -28.60546875 36.76171875 C-31.26506518 31.49467484 -30.67527013 25.73979608 -30 20 C-28.08776433 14.29870478 -24.28632738 10.82145345 -19.13671875 7.8984375 C-15.7462055 6.47281036 -12.66152783 6.19615328 -9 6 C-11.66559313 7.77706209 -14.0280615 8.87548273 -17 10 C-16.67 10.99 -16.34 11.98 -16 13 C-15.505 12.505 -15.01 12.01 -14.5 11.5 C-11.04636583 9.4278195 -7.88074946 9.30285938 -4 10 C-0.90181316 11.90116011 0.85376792 13.80945516 3.0625 16.6875 C5.08708852 19.10394436 5.93313028 19.67140682 9 20 C9.495 18.515 9.495 18.515 10 17 C7.10619424 12.82951522 5.01009707 10.43145631 0 9 C0 6.03 0 3.06 0 0 Z M-16 18.0625 C-17.65290534 22.91790944 -17.61172302 26.48525729 -15.6875 31.25 C-13.80540969 34.60236673 -13.80540969 34.60236673 -11 37 C-7.90478713 37.3930429 -5.95763464 37.61295044 -3 37 C-0.24261424 34.86302603 0.74850804 33.30296785 1.41015625 29.875 C1.68917705 25.63960731 1.34001383 22.84341466 -1.375 19.5 C-4.96281978 16.08302878 -7.08147997 15.57834995 -12.08984375 15.66015625 C-14.24631909 15.85173362 -14.24631909 15.85173362 -16 18.0625 Z M32.28125 17.19140625 C29.66257578 20.88788846 30.42203611 25.68986503 31 30 C32.20311593 32.80185107 33.83380055 34.83380055 36 37 C38.03270562 37.23820921 38.03270562 37.23820921 40.375 37.25 C41.16648437 37.27578125 41.95796875 37.3015625 42.7734375 37.328125 C45.04750192 37.16697335 45.04750192 37.16697335 46.734375 35.75390625 C49.06569305 32.52315994 49.11310899 28.8922798 49 25 C47.55212093 20.88497526 45.98698324 17.93961347 42 16 C38.57610908 15.50097136 35.24520571 15.13684604 32.28125 17.19140625 Z " fill="#AB8F6E" transform="translate(81,19)"/>
<path d="M0 0 C0.33 0 0.66 0 1 0 C1.25 2.8125 1.25 2.8125 1 6 C-0.6875 7.875 -0.6875 7.875 -3 9 C-4.66607788 9.04429749 -6.33407539 9.04972909 -8 9 C-7.98428955 10.23041016 -7.9685791 11.46082031 -7.95239258 12.72851562 C-7.89783738 17.32057067 -7.86355719 21.91259741 -7.83520508 26.50488281 C-7.82017656 28.4873538 -7.79974802 30.46979186 -7.77368164 32.45214844 C-7.73703617 35.31193193 -7.72021396 38.17127344 -7.70703125 41.03125 C-7.69154739 41.90865845 -7.67606354 42.78606689 -7.66011047 43.69006348 C-7.65817783 50.85681773 -9.06220355 56.17635374 -13.1875 62.1875 C-17.9538561 66.9538561 -22.13951352 70.24623478 -29.0625 70.625 C-33.35223874 70.37344125 -36.39677986 69.38941585 -39.7109375 66.625 C-41.65720198 64.17152721 -42.14823888 62.03649352 -42.265625 58.9375 C-41.80897127 55.60661398 -40.55609552 54.09730915 -38 52 C-34.75 51.6875 -34.75 51.6875 -32 52 C-31.34 54.31 -30.68 56.62 -30 59 C-27.62625139 59.33425735 -27.62625139 59.33425735 -25 59 C-22.88154631 57.2102394 -22.08888454 55.69141877 -21.73547363 52.94229126 C-21.63495435 50.29631793 -21.63704856 47.66720704 -21.671875 45.01953125 C-21.67374817 44.05093674 -21.67562134 43.08234222 -21.67755127 42.08439636 C-21.68426551 40.04101103 -21.69816753 37.99763841 -21.71875 35.9543457 C-21.74998663 32.81384445 -21.75972939 29.67384453 -21.765625 26.53320312 C-21.77479165 24.549473 -21.78516635 22.565748 -21.796875 20.58203125 C-21.80112488 19.63729446 -21.80537476 18.69255768 -21.80975342 17.7191925 C-21.81936096 16.85126572 -21.82896851 15.98333893 -21.83886719 15.08911133 C-21.84910919 13.93805656 -21.84910919 13.93805656 -21.85955811 12.76374817 C-21.8101914 10.97355907 -21.8101914 10.97355907 -23 10 C-24.55948542 9.84313751 -26.12542668 9.74923361 -27.69140625 9.68359375 C-28.63564453 9.64169922 -29.57988281 9.59980469 -30.55273438 9.55664062 C-31.54595703 9.51732422 -32.53917969 9.47800781 -33.5625 9.4375 C-34.55958984 9.39431641 -35.55667969 9.35113281 -36.58398438 9.30664062 C-39.0558415 9.20019702 -41.5278031 9.09818072 -44 9 C-43.67 10.32 -43.34 11.64 -43 13 C-43.99 13 -44.98 13 -46 13 C-46.09765625 6.84765625 -46.09765625 6.84765625 -46 5 C-45 4 -45 4 -42.40795898 3.88647461 C-41.28204346 3.89171143 -40.15612793 3.89694824 -38.99609375 3.90234375 C-37.78115234 3.90556641 -36.56621094 3.90878906 -35.31445312 3.91210938 C-34.03505859 3.92048828 -32.75566406 3.92886719 -31.4375 3.9375 C-30.15423828 3.94201172 -28.87097656 3.94652344 -27.54882812 3.95117188 C-24.36583978 3.96300455 -21.18294238 3.97948932 -18 4 C-18 7.63 -18 11.26 -18 15 C-14.29078324 13.87702908 -14.29078324 13.87702908 -11 12 C-10.01592762 8.44892109 -10.01592762 8.44892109 -10 5 C-9 4 -9 4 -7.15234375 3.90234375 C-5.1015625 3.93489583 -3.05078125 3.96744792 -1 4 C-0.67 2.68 -0.34 1.36 0 0 Z " fill="#B6924F" transform="translate(175,15)"/>
<path d="M0 0 C49.83 0 99.66 0 151 0 C150.67 1.65 150.34 3.3 150 5 C147.36 5.33 144.72 5.66 142 6 C141.34 8.97 140.68 11.94 140 15 C137.69 15.33 135.38 15.66 133 16 C133 12.37 133 8.74 133 5 C119.635 5.495 119.635 5.495 106 6 C105.67 8.64 105.34 11.28 105 14 C105.721875 13.896875 106.44375 13.79375 107.1875 13.6875 C111.24270548 14.13807839 112.48570302 15.87411727 115 19 C117.45000486 24.01667663 117.61625809 29.50805291 117 35 C115.984375 37.3046875 115.984375 37.3046875 115 39 C112.69 39 110.38 39 108 39 C108 39.99 108 40.98 108 42 C107.34 42 106.68 42 106 42 C106.495 40.576875 106.495 40.576875 107 39.125 C108.70033087 33.03830834 109.28381229 26.69436743 106.1875 21 C104.16082941 17.85769978 104.16082941 17.85769978 101 16 C96.58655708 15.57289262 94.1339605 15.42042019 90.1875 17.4375 C87.20050541 20.93655081 86.15642897 24.59992879 85 29 C82.69 28.67 80.38 28.34 78 28 C77.67 28.66 77.34 29.32 77 30 C77.26726925 24.83279456 77.6260652 21.2539197 81.35546875 17.3203125 C87.06953906 12.73276912 92.83250429 11.47872758 100 12 C100 9.69 100 7.38 100 5 C95.71 5 91.42 5 87 5 C86.505 3.515 86.505 3.515 86 2 C84.82633881 2.00333092 84.82633881 2.00333092 83.62896729 2.00672913 C76.15939683 2.0269868 68.68984019 2.04210151 61.22024918 2.05181217 C57.38249769 2.05697272 53.54476939 2.06394178 49.70703125 2.07543945 C33.11259002 2.12389418 16.56609584 2.1313618 0 1 C0 0.67 0 0.34 0 0 Z " fill="#F2E4B4" transform="translate(24,14)"/>
<path d="M0 0 C1.12591553 0.00523682 2.25183105 0.01047363 3.41186523 0.01586914 C4.50571533 0.0183667 5.59956543 0.02086426 6.7265625 0.0234375 C8.82729126 0.03709351 8.82729126 0.03709351 10.97045898 0.05102539 C17.62202148 0.08196289 17.62202148 0.08196289 24.40795898 0.11352539 C24.73795898 15.62352539 25.06795898 31.13352539 25.40795898 47.11352539 C27.05795898 47.11352539 28.70795898 47.11352539 30.40795898 47.11352539 C31.28295898 49.17602539 31.28295898 49.17602539 31.40795898 52.11352539 C28.63736163 56.72459099 25.55269161 59.48171592 20.40795898 61.11352539 C13.74052787 62.30702248 8.13455466 63.09032794 2.40795898 59.11352539 C2.35396162 57.65559655 2.31516722 56.19709827 2.28295898 54.73852539 C2.25975586 53.92641602 2.23655273 53.11430664 2.21264648 52.27758789 C2.40795898 50.11352539 2.40795898 50.11352539 4.40795898 48.11352539 C7.53295898 47.98852539 7.53295898 47.98852539 10.40795898 48.11352539 C11.06795898 50.42352539 11.72795898 52.73352539 12.40795898 55.11352539 C14.7817076 55.44778274 14.7817076 55.44778274 17.40795898 55.11352539 C19.52641268 53.32376479 20.31907444 51.80494416 20.67248535 49.05581665 C20.77300464 46.40984332 20.77091042 43.78073243 20.73608398 41.13305664 C20.73421082 40.16446213 20.73233765 39.19586761 20.73040771 38.19792175 C20.72369347 36.15453642 20.70979146 34.1111638 20.68920898 32.06787109 C20.65797236 28.92736984 20.6482296 25.78736992 20.64233398 22.64672852 C20.63316733 20.66299839 20.62279264 18.67927339 20.61108398 16.69555664 C20.60683411 15.75081985 20.60258423 14.80608307 20.59820557 13.8327179 C20.58859802 12.96479111 20.57899048 12.09686432 20.5690918 11.20263672 C20.55884979 10.05158195 20.55884979 10.05158195 20.54840088 8.87727356 C20.59776759 7.08708446 20.59776759 7.08708446 19.40795898 6.11352539 C17.84847356 5.95666291 16.28253231 5.862759 14.71655273 5.79711914 C13.77231445 5.75522461 12.82807617 5.71333008 11.85522461 5.67016602 C10.86200195 5.63084961 9.8687793 5.5915332 8.84545898 5.55102539 C7.84836914 5.5078418 6.8512793 5.4646582 5.82397461 5.42016602 C3.35211748 5.31372241 0.88015589 5.21170611 -1.59204102 5.11352539 C-1.26204102 6.43352539 -0.93204102 7.75352539 -0.59204102 9.11352539 C-1.58204102 9.11352539 -2.57204102 9.11352539 -3.59204102 9.11352539 C-3.68969727 2.96118164 -3.68969727 2.96118164 -3.59204102 1.11352539 C-2.59204102 0.11352539 -2.59204102 0.11352539 0 0 Z " fill="#996B27" transform="translate(132.592041015625,18.886474609375)"/>
<path d="M0 0 C9.4 0 9.4 0 13 3 C15.52403814 6.15504768 16.88266618 8.23733016 17.5 12.25 C17.7475 13.61125 17.7475 13.61125 18 15 C19.95163118 16.43637698 19.95163118 16.43637698 22 17 C22 17.66 22 18.32 22 19 C24.83762593 14.7435611 24.34865822 10.58007086 23.6875 5.6875 C22.9479559 3.5598989 22.9479559 3.5598989 20 1 C30.56 1 41.12 1 52 1 C52 3.31 52 5.62 52 8 C51.01 8 50.02 8 49 8 C49 7.01 49 6.02 49 5 C41.41 5 33.82 5 26 5 C26.33 5.66 26.66 6.32 27 7 C27.79668571 12.4255305 27.69533841 16.76365647 24.4375 21.3125 C18.0231491 28.69646208 12.69988027 30.68273231 3 32 C2.34 35.63 1.68 39.26 1 43 C0.67 43 0.34 43 0 43 C0 37.06 0 31.12 0 25 C1.60875 24.773125 3.2175 24.54625 4.875 24.3125 C8.89258607 23.62311185 8.89258607 23.62311185 11.625 20.8125 C12.61914503 14.81358889 12.61914503 14.81358889 10.9375 9.1875 C8.32966523 7.46999714 8.32966523 7.46999714 2 6 C2 11.28 2 16.56 2 22 C1.34 22 0.68 22 0 22 C0 14.74 0 7.48 0 0 Z " fill="#B58D46" transform="translate(24,18)"/>
<path d="M0 0 C0.99 0.495 0.99 0.495 2 1 C2 1.99 2 2.98 2 4 C3.11375 3.938125 4.2275 3.87625 5.375 3.8125 C7.169375 3.9053125 7.169375 3.9053125 9 4 C9.99 5.485 9.99 5.485 11 7 C10.67 7.66 10.34 8.32 10 9 C11.32 8.34 12.64 7.68 14 7 C17 9 17 9 18 12 C18.15370348 14.72883073 18.25728265 17.43697142 18.31640625 20.16796875 C18.33718735 20.96278152 18.35796844 21.7575943 18.37937927 22.57649231 C18.44472087 25.11340763 18.50368808 27.65042573 18.5625 30.1875 C18.60569986 31.90821372 18.64931463 33.62891708 18.69335938 35.34960938 C18.80038648 39.56630113 18.90169724 43.7830962 19 48 C21.31 48.66 23.62 49.32 26 50 C25.67 50.99 25.34 51.98 25 53 C17.74 52.67 10.48 52.34 3 52 C3 51.34 3 50.68 3 50 C3.99 50 4.98 50 6 50 C7.25282725 46.24151826 7.12381835 42.74509081 7.09765625 38.83203125 C7.09553383 37.63981209 7.09553383 37.63981209 7.09336853 36.42350769 C7.08777378 33.88646675 7.07522228 31.34951425 7.0625 28.8125 C7.05748432 27.09179815 7.05292153 25.37109492 7.04882812 23.65039062 C7.03780607 19.4335597 7.02054506 15.21679484 7 11 C4.69 10.34 2.38 9.68 0 9 C0 6.03 0 3.06 0 0 Z " fill="#AD853C" transform="translate(5,15)"/>
<path d="M0 0 C-2.66559313 1.77706209 -5.0280615 2.87548273 -8 4 C-7.67 4.99 -7.34 5.98 -7 7 C-6.505 6.505 -6.01 6.01 -5.5 5.5 C-2.04561492 3.42736895 1.11875137 3.30415861 5 4 C8.90383608 6.34230165 10.98924249 8.95570019 13 13 C13.328125 16.26171875 13.328125 16.26171875 13.25 19.6875 C13.23453125 20.82574219 13.2190625 21.96398437 13.203125 23.13671875 C13 26 13 26 12 28 C11.34 28 10.68 28 10 28 C9.97421875 27.26394531 9.9484375 26.52789062 9.921875 25.76953125 C9.5307505 18.05581837 9.5307505 18.05581837 5 12 C2.71294169 10.85647084 1.40735238 10.89665561 -1.125 10.9375 C-3.043125 10.9684375 -3.043125 10.9684375 -5 11 C-7.34515209 14.66430014 -7.36881381 17.72175983 -7 22 C-5.64184747 25.27191292 -4.50104494 27.49895506 -2 30 C0.65537372 30.56520003 3.29144713 30.73788198 6 31 C5.01 31.33 4.02 31.66 3 32 C3 32.66 3 33.32 3 34 C-0.53599998 33.92928 -3.1041863 33.80836985 -5.80078125 31.375 C-7.27675028 29.62779084 -8.67266996 27.86215167 -10 26 C-12.46800047 27.15173355 -14.04783565 28.04783565 -16 30 C-16.33 30 -16.66 30 -17 30 C-15.36587557 31.70840281 -14.13093906 32.93453047 -12 34 C-11.375 36.0625 -11.375 36.0625 -11 38 C-14.63593477 37.1689292 -16.62894905 35.66971955 -18.8125 32.75 C-22.18270911 26.88690606 -21.93063352 20.53731905 -21 14 C-18.98980115 8.08927769 -15.1664459 4.95155942 -9.8671875 1.91015625 C-6.44172031 0.24042015 -3.75916883 -0.10159916 0 0 Z " fill="#BD9551" transform="translate(72,25)"/>
<path d="M0 0 C1.18084671 0.00007553 2.36169342 0.00015106 3.57832336 0.00022888 C4.84306992 0.00539017 6.10781647 0.01055145 7.41088867 0.01586914 C8.71338058 0.01728409 10.0158725 0.01869904 11.35783386 0.02015686 C14.80852197 0.02396184 18.2591675 0.03377475 21.70983887 0.04486084 C25.23583399 0.0551185 28.76183603 0.05966379 32.2878418 0.06469727 C39.19736441 0.07539895 46.10685887 0.09245096 53.01635742 0.11352539 C53.51135742 1.59852539 53.51135742 1.59852539 54.01635742 3.11352539 C44.11635742 3.11352539 34.21635742 3.11352539 24.01635742 3.11352539 C24.01635742 6.08352539 24.01635742 9.05352539 24.01635742 12.11352539 C25.06823242 12.14446289 25.06823242 12.14446289 26.14135742 12.17602539 C30.26135003 13.51950124 32.84746984 16.37912497 35.01635742 20.11352539 C34.52135742 21.59852539 34.52135742 21.59852539 34.01635742 23.11352539 C32.36635742 22.78352539 30.71635742 22.45352539 29.01635742 22.11352539 C28.68635742 22.77352539 28.35635742 23.43352539 28.01635742 24.11352539 C27.5271582 23.28208008 27.5271582 23.28208008 27.02807617 22.43383789 C26.59108398 21.70938477 26.1540918 20.98493164 25.70385742 20.23852539 C25.27459961 19.51922852 24.8453418 18.79993164 24.40307617 18.05883789 C22.99883367 15.84506206 22.99883367 15.84506206 20.01635742 14.11352539 C14.47079425 13.58417714 14.47079425 13.58417714 9.51635742 15.61352539 C9.02135742 16.10852539 8.52635742 16.60352539 8.01635742 17.11352539 C7.35635742 16.78352539 6.69635742 16.45352539 6.01635742 16.11352539 C6.34635742 15.78352539 6.67635742 15.45352539 7.01635742 15.11352539 C6.35635742 14.45352539 5.69635742 13.79352539 5.01635742 13.11352539 C11.64135742 10.11352539 11.64135742 10.11352539 15.01635742 10.11352539 C15.01635742 9.45352539 15.01635742 8.79352539 15.01635742 8.11352539 C7.75635742 8.11352539 0.49635742 8.11352539 -6.98364258 8.11352539 C-6.98364258 7.78352539 -6.98364258 7.45352539 -6.98364258 7.11352539 C0.60635742 7.11352539 8.19635742 7.11352539 16.01635742 7.11352539 C16.01635742 8.10352539 16.01635742 9.09352539 16.01635742 10.11352539 C17.00635742 10.11352539 17.99635742 10.11352539 19.01635742 10.11352539 C19.01635742 7.80352539 19.01635742 5.49352539 19.01635742 3.11352539 C18.17862793 3.12399902 17.34089844 3.13447266 16.4777832 3.14526367 C13.37297578 3.17932558 10.2682635 3.2044145 7.16333008 3.22338867 C5.15724382 3.23840646 3.15124418 3.2638152 1.14526367 3.28930664 C-0.11157227 3.29575195 -1.3684082 3.30219727 -2.66333008 3.30883789 C-3.82590332 3.31931152 -4.98847656 3.32978516 -6.1862793 3.34057617 C-8.98364258 3.11352539 -8.98364258 3.11352539 -10.98364258 1.11352539 C-7.2575182 0.24964732 -3.82138594 -0.00818284 0 0 Z " fill="#E3C474" transform="translate(56.983642578125,15.886474609375)"/>
<path d="M0 0 C9.57 0 19.14 0 29 0 C28.01 0.99 27.02 1.98 26 3 C23.03 2.67 20.06 2.34 17 2 C17 9.26 17 16.52 17 24 C22.445 23.01 22.445 23.01 28 22 C28.33 22.99 28.66 23.98 29 25 C25.09971775 27.60018816 21.52565431 27.15085514 17 27 C17.495 33.93 17.495 33.93 18 41 C18.33 41 18.66 41 19 41 C19 42.65 19 44.3 19 46 C22.465 46.495 22.465 46.495 26 47 C26.25 49.8125 26.25 49.8125 26 53 C23.91739237 55.04630038 22.5505163 55.91650179 19.64990234 56.35644531 C18.80379395 56.34709961 17.95768555 56.33775391 17.0859375 56.328125 C15.69761719 56.32039063 15.69761719 56.32039063 14.28125 56.3125 C12.84265625 56.2815625 12.84265625 56.2815625 11.375 56.25 C10.40820312 56.24484375 9.44140625 56.2396875 8.4453125 56.234375 C1.30928571 56.15464286 1.30928571 56.15464286 -1 55 C-0.67 52.36 -0.34 49.72 0 47 C2.475 46.505 2.475 46.505 5 46 C4.67 46.99 4.34 47.98 4 49 C3.01 49 2.02 49 1 49 C1 49.66 1 50.32 1 51 C8.26 51 15.52 51 23 51 C23.33 50.34 23.66 49.68 24 49 C22.865625 48.855625 21.73125 48.71125 20.5625 48.5625 C17 48 17 48 16 47 C15.83976438 44.11747355 15.74045971 41.25621473 15.68359375 38.37109375 C15.66281265 37.50686295 15.64203156 36.64263214 15.62062073 35.75221252 C15.55502886 32.98072555 15.49619582 30.20914079 15.4375 27.4375 C15.39432392 25.56314077 15.35070994 23.68879157 15.30664062 21.81445312 C15.19933773 17.20973664 15.09809785 12.60492142 15 8 C11.98968256 7.06576355 11.13349732 6.95550089 8 8 C7.67 6.68 7.34 5.36 7 4 C4.69 3.67 2.38 3.34 0 3 C0 2.01 0 1.02 0 0 Z " fill="#AC8F6D" transform="translate(7,16)"/>
<path d="M0 0 C0.66 0 1.32 0 2 0 C3.55009707 4.65029122 3.59356941 8.46921572 1.8125 13.0625 C-2.32807191 19.77308206 -7.24169726 25.17558725 -14.97265625 27.625 C-20.90907563 28.72306601 -26.39932591 28.29771245 -32 26 C-32.0928125 24.824375 -32.0928125 24.824375 -32.1875 23.625 C-32.455625 22.75875 -32.72375 21.8925 -33 21 C-34.66072849 20.31867549 -36.327767 19.65257873 -38 19 C-39.3125 16.375 -39.3125 16.375 -40 14 C-38.515 14.99 -38.515 14.99 -37 16 C-36.34 15.34 -35.68 14.68 -35 14 C-34.01 14 -33.02 14 -32 14 C-31.67 13.34 -31.34 12.68 -31 12 C-30.64808594 12.48210938 -30.29617187 12.96421875 -29.93359375 13.4609375 C-26.28513432 18.12867933 -23.84679591 19.94757674 -18 21 C-18 20.34 -18 19.68 -18 19 C-14.27034861 16.96564469 -12.33094958 16 -8 16 C-7.67 15.34 -7.34 14.68 -7 14 C-5.68 14.33 -4.36 14.66 -3 15 C-0.73045369 11.59568053 -0.63450051 9.83475798 -0.375 5.8125 C-0.30023438 4.72582031 -0.22546875 3.63914063 -0.1484375 2.51953125 C-0.09945312 1.68808594 -0.05046875 0.85664062 0 0 Z " fill="#927356" transform="translate(93,38)"/>
<path d="M0 0 C10.56 0 21.12 0 32 0 C32 2.31 32 4.62 32 7 C31.01 7 30.02 7 29 7 C29 6.01 29 5.02 29 4 C21.41 4 13.82 4 6 4 C6.33 4.66 6.66 5.32 7 6 C7.79668571 11.4255305 7.69533841 15.76365647 4.4375 20.3125 C-2.2045299 27.9408174 -7.94546301 29.89383583 -18 31 C-18 29.68 -18 28.36 -18 27 C-16.25183142 26.49363393 -14.50137737 25.99515381 -12.75 25.5 C-11.77546875 25.2215625 -10.8009375 24.943125 -9.796875 24.65625 C-7 24 -7 24 -3 24 C-2.67 23.01 -2.34 22.02 -2 21 C-0.35360035 19.64172029 1.31295807 18.30745749 3 17 C4.84496568 13.31006865 4.23148001 8.7129521 3.6875 4.6875 C2.9479559 2.5598989 2.9479559 2.5598989 0 0 Z " fill="#92714D" transform="translate(44,19)"/>
<path d="M0 0 C3.74836831 3.76799328 5.3225888 7.78854883 5.5 13.0625 C5.27436674 17.62452241 4.10185489 20.97144479 2 25 C2.66 25 3.32 25 4 25 C4 24.01 4 23.02 4 22 C6.31 22 8.62 22 11 22 C12.9202046 15.33304963 12.69679171 8.40488031 10 2 C13.75394636 5.63285132 15.1600357 7.4475428 15.3125 12.6875 C15.21436853 18.89654601 13.34134328 22.73014812 8.953125 26.984375 C7.00642313 28.71017453 5.03263962 30.37684846 3 32 C1 31 1 31 0 28 C-1.65 28 -3.3 28 -5 28 C-5 27.67 -5 27.34 -5 27 C-6.65 26.67 -8.3 26.34 -10 26 C-10 25.67 -10 25.34 -10 25 C-8.741875 24.938125 -7.48375 24.87625 -6.1875 24.8125 C-3.19562202 24.40475734 -2.26034149 24.24407014 0 22.125 C1.51687744 17.384758 1.78964923 12.92012213 1 8 C-2.3665047 3.68666586 -6.84825706 3.04781212 -12 2 C-11.67 1.34 -11.34 0.68 -11 0 C-7.0833454 -1.23094859 -3.87587544 -1.37270589 0 0 Z " fill="#BB935D" transform="translate(128,31)"/>
<path d="M0 0 C-2.91765 1.9451 -4.62537285 2.45276317 -8 3 C-7.09507813 3.25523438 -7.09507813 3.25523438 -6.171875 3.515625 C2.36452614 6.10408212 2.36452614 6.10408212 5 10 C5.25 12.75 5.25 12.75 5 15 C4.34 14.01 3.68 13.02 3 12 C1.06531289 9.14691542 1.06531289 9.14691542 -2 7 C-5.37495967 6.57619189 -8.6175113 6.70444274 -12 7 C-12.8063866 15.62345878 -12.8063866 15.62345878 -10.4375 23.6875 C-7.45578245 26.51630896 -4.99725776 27.23129658 -1 28 C-1.33 28.66 -1.66 29.32 -2 30 C-7.76713315 29.76460681 -10.08268299 28.34855998 -14.2265625 24.4296875 C-16.9598503 22.22619998 -19.60333205 21.74726695 -23 21 C-23.33 20.67 -23.66 20.34 -24 20 C-23.71269945 17.66055264 -23.38063221 15.3260857 -23 13 C-21.02 13 -19.04 13 -17 13 C-16.76925781 12.39671875 -16.53851563 11.7934375 -16.30078125 11.171875 C-12.73665367 2.4376493 -9.55528677 -0.64781605 0 0 Z " fill="#BC954A" transform="translate(125,29)"/>
<path d="M0 0 C1.12591553 0.00523682 2.25183105 0.01047363 3.41186523 0.01586914 C4.50571533 0.0183667 5.59956543 0.02086426 6.7265625 0.0234375 C8.82729126 0.03709351 8.82729126 0.03709351 10.97045898 0.05102539 C17.62202148 0.08196289 17.62202148 0.08196289 24.40795898 0.11352539 C24.40795898 15.29352539 24.40795898 30.47352539 24.40795898 46.11352539 C23.74795898 45.78352539 23.08795898 45.45352539 22.40795898 45.11352539 C22.07795898 31.91352539 21.74795898 18.71352539 21.40795898 5.11352539 C10.02295898 4.61852539 10.02295898 4.61852539 -1.59204102 4.11352539 C-1.26204102 5.76352539 -0.93204102 7.41352539 -0.59204102 9.11352539 C-1.58204102 9.11352539 -2.57204102 9.11352539 -3.59204102 9.11352539 C-3.68969727 2.96118164 -3.68969727 2.96118164 -3.59204102 1.11352539 C-2.59204102 0.11352539 -2.59204102 0.11352539 0 0 Z " fill="#8C571A" transform="translate(132.592041015625,18.886474609375)"/>
<path d="M0 0 C3.65316671 1.24976756 4.78065836 1.67098753 7 5 C9.27834361 10.18956044 9.62731807 15.40948892 9 21 C7.984375 23.3046875 7.984375 23.3046875 7 25 C4.69 25 2.38 25 0 25 C0 25.99 0 26.98 0 28 C-0.66 28 -1.32 28 -2 28 C-1.67 27.05125 -1.34 26.1025 -1 25.125 C0.59339816 19.4850583 1.25989311 13.41479513 -1.5 8.125 C-2.2425 7.073125 -2.2425 7.073125 -3 6 C-3 4.68 -3 3.36 -3 2 C-0.525 2.495 -0.525 2.495 2 3 C1.34 2.01 0.68 1.02 0 0 Z " fill="#E0C278" transform="translate(132,28)"/>
<path d="M0 0 C13.86 0 27.72 0 42 0 C42 2.31 42 4.62 42 7 C41.01 6.67 40.02 6.34 39 6 C39 5.34 39 4.68 39 4 C26.46 4 13.92 4 1 4 C0.67 5.32 0.34 6.64 0 8 C0 5.36 0 2.72 0 0 Z " fill="#8B633C" transform="translate(82,19)"/>
<path d="M0 0 C0.33 0 0.66 0 1 0 C1.07453648 5.55010083 1.12878399 11.09990586 1.16479492 16.65039062 C1.17981793 18.53585897 1.20024231 20.42129275 1.22631836 22.30664062 C1.26298863 25.0274309 1.27979146 27.74775641 1.29296875 30.46875 C1.30845261 31.30241089 1.32393646 32.13607178 1.33988953 32.99499512 C1.3418787 40.01988407 -0.14828393 45.30178516 -4.1875 51.1875 C-8.9538561 55.9538561 -13.13951352 59.24623478 -20.0625 59.625 C-24.35470819 59.37329643 -27.38760373 58.37862924 -30.71875 55.63671875 C-33.13757972 52.54681128 -33.06334169 49.86384296 -33 46 C-32.34 45.34 -31.68 44.68 -31 44 C-30.67 46.64 -30.34 49.28 -30 52 C-24.24215333 54.73629777 -19.15421184 54.01039299 -13 53 C-8.24953713 51.30340612 -5.74945417 49.22237605 -3 45 C-0.87740106 39.91016271 -0.66215363 35.30718129 -0.5859375 29.8828125 C-0.56657135 29.02565643 -0.5472052 28.16850037 -0.5272522 27.28536987 C-0.46778744 24.56534572 -0.42120431 21.84527848 -0.375 19.125 C-0.3367897 17.27341972 -0.29773622 15.42185663 -0.2578125 13.5703125 C-0.16211336 9.04701575 -0.07796094 4.52363584 0 0 Z " fill="#B79A79" transform="translate(166,26)"/>
<path d="M0 0 C7.59 0 15.18 0 23 0 C23 0.99 23 1.98 23 3 C23.99 3 24.98 3 26 3 C26.33 2.01 26.66 1.02 27 0 C28 0 29 0 30 0 C30 1.65 30 3.3 30 5 C30.86625 5.020625 31.7325 5.04125 32.625 5.0625 C36.80139225 6.22260896 38.26042659 7.98847243 40.99609375 11.2109375 C41.32738281 11.80132812 41.65867188 12.39171875 42 13 C41.67 13.99 41.34 14.98 41 16 C38.525 15.505 38.525 15.505 36 15 C35.67 15.66 35.34 16.32 35 17 C34.51080078 16.16855469 34.51080078 16.16855469 34.01171875 15.3203125 C33.57472656 14.59585938 33.13773438 13.87140625 32.6875 13.125 C32.25824219 12.40570313 31.82898438 11.68640625 31.38671875 10.9453125 C29.98247625 8.73153667 29.98247625 8.73153667 27 7 C21.45443682 6.47065175 21.45443682 6.47065175 16.5 8.5 C16.005 8.995 15.51 9.49 15 10 C14.34 9.67 13.68 9.34 13 9 C13.33 8.67 13.66 8.34 14 8 C13.34 7.34 12.68 6.68 12 6 C18.625 3 18.625 3 22 3 C22 2.34 22 1.68 22 1 C14.74 1 7.48 1 0 1 C0 0.67 0 0.34 0 0 Z " fill="#DEBC6D" transform="translate(50,23)"/>
<path d="M0 0 C0.99 0.495 0.99 0.495 2 1 C2 1.99 2 2.98 2 4 C3.11375 3.938125 4.2275 3.87625 5.375 3.8125 C7.169375 3.9053125 7.169375 3.9053125 9 4 C11.49758877 7.74638316 11.24450746 9.7210935 11.23046875 14.1953125 C11.22978142 15.25563187 11.22978142 15.25563187 11.2290802 16.33737183 C11.22605993 17.83528315 11.21818029 19.33319139 11.20581055 20.83105469 C11.18773292 23.09581976 11.18529984 25.36017079 11.18554688 27.625 C11.16739438 34.80803117 11.00978979 41.87492322 10 49 C8.02 49.495 8.02 49.495 6 50 C6.33 49.01 6.66 48.02 7 47 C7.08507079 44.2684044 7.11591565 41.56308557 7.09765625 38.83203125 C7.09553383 37.63981209 7.09553383 37.63981209 7.09336853 36.42350769 C7.08777378 33.88646675 7.07522228 31.34951425 7.0625 28.8125 C7.05748432 27.09179815 7.05292153 25.37109492 7.04882812 23.65039062 C7.03780607 19.4335597 7.02054506 15.21679484 7 11 C4.69 10.34 2.38 9.68 0 9 C0 6.03 0 3.06 0 0 Z " fill="#98713E" transform="translate(5,15)"/>
<path d="M0 0 C0.33 0 0.66 0 1 0 C1.25 2.8125 1.25 2.8125 1 6 C-0.6875 7.875 -0.6875 7.875 -3 9 C-4.65 9 -6.3 9 -8 9 C-8.33 13.95 -8.66 18.9 -9 24 C-9.99 22.68 -10.98 21.36 -12 20 C-12.33 19.67 -12.66 19.34 -13 19 C-16.24849977 20.72226496 -16.24849977 20.72226496 -17 24 C-15.02 24 -13.04 24 -11 24 C-11 27 -11 27 -11.625 29.0625 C-11.74875 29.701875 -11.8725 30.34125 -12 31 C-11.34 31.66 -10.68 32.32 -10 33 C-11.485 33.495 -11.485 33.495 -13 34 C-13.66 33.67 -14.32 33.34 -15 33 C-14.34 31.68 -13.68 30.36 -13 29 C-13.66 28.67 -14.32 28.34 -15 28 C-15 27.01 -15 26.02 -15 25 C-15.99 25.33 -16.98 25.66 -18 26 C-18 22.37 -18 18.74 -18 15 C-16.865625 14.649375 -15.73125 14.29875 -14.5625 13.9375 C-12.60479862 13.20262514 -12.60479862 13.20262514 -11 12 C-10.01592762 8.44892109 -10.01592762 8.44892109 -10 5 C-9 4 -9 4 -7.15234375 3.90234375 C-5.1015625 3.93489583 -3.05078125 3.96744792 -1 4 C-0.67 2.68 -0.34 1.36 0 0 Z " fill="#B39463" transform="translate(175,15)"/>
<path d="M0 0 C0.33 0.66 0.66 1.32 1 2 C1.66 2.144375 2.32 2.28875 3 2.4375 C3.66 2.623125 4.32 2.80875 5 3 C5.33 3.99 5.66 4.98 6 6 C6.66 6 7.32 6 8 6 C8.33 8.31 8.66 10.62 9 13 C11.31 13.66 13.62 14.32 16 15 C15.67 15.99 15.34 16.98 15 18 C7.74 17.67 0.48 17.34 -7 17 C-7 16.34 -7 15.68 -7 15 C-3.535 14.505 -3.535 14.505 0 14 C0 9.38 0 4.76 0 0 Z " fill="#895C1D" transform="translate(15,50)"/>
<path d="M0 0 C0.66 0 1.32 0 2 0 C3.58055866 4.74167597 3.48247327 8.57938426 1.875 13.3125 C-0.45587377 16.65341907 -2.14699148 16.95647686 -6 18 C-7.02104551 18.97850195 -8.0206121 19.97980427 -9 21 C-14.1371664 24.38301202 -19.01730573 24.89504875 -25 24 C-27.65020782 22.91261455 -29.62817661 21.6499641 -32 20 C-28.83721158 18.41860579 -26.30473042 20.04778954 -23 21 C-20.20755955 21.16928543 -20.20755955 21.16928543 -18 21 C-18 20.34 -18 19.68 -18 19 C-14.27034861 16.96564469 -12.33094958 16 -8 16 C-7.67 15.34 -7.34 14.68 -7 14 C-5.68 14.33 -4.36 14.66 -3 15 C-0.73045369 11.59568053 -0.63450051 9.83475798 -0.375 5.8125 C-0.30023438 4.72582031 -0.22546875 3.63914063 -0.1484375 2.51953125 C-0.09945312 1.68808594 -0.05046875 0.85664062 0 0 Z " fill="#8E5B21" transform="translate(93,38)"/>
<path d="M0 0 C3.81248426 -0.02887236 7.6249407 -0.04675492 11.4375 -0.0625 C12.52611328 -0.07087891 13.61472656 -0.07925781 14.73632812 -0.08789062 C15.77080078 -0.09111328 16.80527344 -0.09433594 17.87109375 -0.09765625 C18.82943115 -0.10289307 19.78776855 -0.10812988 20.77514648 -0.11352539 C23 0 23 0 24 1 C24.11376031 2.44097567 24.15953596 3.88741 24.17700195 5.33276367 C24.18983719 6.25429733 24.20267242 7.17583099 24.21589661 8.12528992 C24.22328354 9.12937393 24.23067047 10.13345795 24.23828125 11.16796875 C24.246353 12.19553787 24.25442474 13.22310699 24.26274109 14.28181458 C24.27660331 16.46333112 24.28731584 18.64486955 24.29516602 20.82641602 C24.3123385 24.15618424 24.35620132 27.48494951 24.40039062 30.81445312 C24.41052062 32.93228435 24.41903576 35.05012404 24.42578125 37.16796875 C24.44328934 38.16193161 24.46079742 39.15589447 24.47883606 40.17997742 C24.46052312 46.0470828 24.06670909 49.61806321 20 54 C16.5 54.625 16.5 54.625 13 54 C10.5625 52 10.5625 52 9 50 C9.99 49.505 9.99 49.505 11 49 C10.67 48.34 10.34 47.68 10 47 C8.02 47 6.04 47 4 47 C4.66 46.01 5.32 45.02 6 44 C9.125 43.8125 9.125 43.8125 12 44 C12.66 46.31 13.32 48.62 14 51 C16.37374861 51.33425735 16.37374861 51.33425735 19 51 C21.11845369 49.2102394 21.91111546 47.69141877 22.26452637 44.94229126 C22.36504565 42.29631793 22.36295144 39.66720704 22.328125 37.01953125 C22.32625183 36.05093674 22.32437866 35.08234222 22.32244873 34.08439636 C22.31573449 32.04101103 22.30183247 29.99763841 22.28125 27.9543457 C22.25001337 24.81384445 22.24027061 21.67384453 22.234375 18.53320312 C22.22520835 16.549473 22.21483365 14.565748 22.203125 12.58203125 C22.19887512 11.63729446 22.19462524 10.69255768 22.19024658 9.7191925 C22.18063904 8.85126572 22.17103149 7.98333893 22.16113281 7.08911133 C22.15089081 5.93805656 22.15089081 5.93805656 22.14044189 4.76374817 C22.1898086 2.97355907 22.1898086 2.97355907 21 2 C19.44051458 1.84313751 17.87457332 1.74923361 16.30859375 1.68359375 C15.36435547 1.64169922 14.42011719 1.59980469 13.44726562 1.55664062 C12.45404297 1.51732422 11.46082031 1.47800781 10.4375 1.4375 C9.44041016 1.39431641 8.44332031 1.35113281 7.41601562 1.30664062 C4.9441585 1.20019702 2.4721969 1.09818072 0 1 C0 0.67 0 0.34 0 0 Z " fill="#B89F83" transform="translate(131,23)"/>
<path d="M0 0 C3.90383608 2.34230165 5.98924249 4.95570019 8 9 C8.328125 12.26171875 8.328125 12.26171875 8.25 15.6875 C8.23453125 16.82574219 8.2190625 17.96398437 8.203125 19.13671875 C8 22 8 22 7 24 C6.34 24 5.68 24 5 24 C4.98582031 23.03578125 4.97164062 22.0715625 4.95703125 21.078125 C4.90933594 19.81484375 4.86164063 18.5515625 4.8125 17.25 C4.76029297 15.37054688 4.76029297 15.37054688 4.70703125 13.453125 C4.29237866 9.89859639 4.29237866 9.89859639 1.78125 7.625 C-1.02648187 5.98452745 -3.12000747 5.26079881 -6.3125 4.75 C-7.19550781 4.60046875 -8.07851562 4.4509375 -8.98828125 4.296875 C-9.65214844 4.19890625 -10.31601563 4.1009375 -11 4 C-10.67 3.01 -10.34 2.02 -10 1 C-6.79187832 -0.60406084 -3.48059567 -0.48192863 0 0 Z " fill="#956C3D" transform="translate(77,29)"/>
<path d="M0 0 C9.57 0 19.14 0 29 0 C26 3 26 3 23.73828125 3.29296875 C22.93777344 3.25816406 22.13726563 3.22335938 21.3125 3.1875 C20.10013672 3.14689453 20.10013672 3.14689453 18.86328125 3.10546875 C18.24839844 3.07066406 17.63351563 3.03585938 17 3 C16.67 5.64 16.34 8.28 16 11 C15.67 10.01 15.34 9.02 15 8 C12.05610218 6.82244087 11.10046087 6.96651304 8 8 C7.67 6.68 7.34 5.36 7 4 C4.69 3.67 2.38 3.34 0 3 C0 2.01 0 1.02 0 0 Z " fill="#BD9447" transform="translate(7,16)"/>
<path d="M0 0 C2.375 0.1875 2.375 0.1875 5 1 C7.04229588 4.80860582 7.21882972 8.04324762 7.125 12.3125 C7.10695312 13.38113281 7.08890625 14.44976562 7.0703125 15.55078125 C7.03550781 16.76314453 7.03550781 16.76314453 7 18 C4.36 18 1.72 18 -1 18 C-1 13.71 -1 9.42 -1 5 C0.32 4.67 1.64 4.34 3 4 C2.01 3.34 1.02 2.68 0 2 C0 1.34 0 0.68 0 0 Z " fill="#B48B42" transform="translate(158,49)"/>
<path d="M0 0 C5.37765849 1.15988712 8.653086 2.33460473 12 7 C12.68414862 10.01865575 12.45495278 11.81533051 12 15 C10 17.5 10 17.5 8 19 C8 18.01 8 17.02 8 16 C7.36320312 15.78214844 6.72640625 15.56429687 6.0703125 15.33984375 C4 14 4 14 3.2421875 11.50390625 C3.12101562 10.53324219 2.99984375 9.56257813 2.875 8.5625 C2.3894769 4.84180764 2.12477496 3.18716244 0 0 Z " fill="#CCA85E" transform="translate(37,19)"/>
<path d="M0 0 C0.33 0 0.66 0 1 0 C1 6.93 1 13.86 1 21 C6.445 20.01 6.445 20.01 12 19 C12.33 19.99 12.66 20.98 13 22 C9.09971775 24.60018816 5.52565431 24.15085514 1 24 C1.33 28.62 1.66 33.24 2 38 C2.33 38 2.66 38 3 38 C3 39.65 3 41.3 3 43 C4.65 43.33 6.3 43.66 8 44 C7.67 44.66 7.34 45.32 7 46 C1.125 45.125 1.125 45.125 0 44 C-0.0927833 42.61839885 -0.11747043 41.23211962 -0.11352539 39.84741211 C-0.11341209 38.52615578 -0.11341209 38.52615578 -0.11329651 37.1782074 C-0.10555458 35.74227989 -0.10555458 35.74227989 -0.09765625 34.27734375 C-0.0962413 33.30213272 -0.09482635 32.32692169 -0.09336853 31.32215881 C-0.08775133 28.19390857 -0.07519593 25.06572877 -0.0625 21.9375 C-0.05748722 19.82226666 -0.05292393 17.70703219 -0.04882812 15.59179688 C-0.03777631 10.39450704 -0.02102146 5.19725855 0 0 Z " fill="#BC9652" transform="translate(23,19)"/>
<path d="M0 0 C3.74836831 3.76799328 5.3225888 7.78854883 5.5 13.0625 C5.27436674 17.62452241 4.10185489 20.97144479 2 25 C1.34 24.67 0.68 24.34 0 24 C0.15726563 23.28972656 0.31453125 22.57945313 0.4765625 21.84765625 C1.32981845 17.20568918 1.62249676 12.69044071 1 8 C-2.3665047 3.68666586 -6.84825706 3.04781212 -12 2 C-11.67 1.34 -11.34 0.68 -11 0 C-7.0833454 -1.23094859 -3.87587544 -1.37270589 0 0 Z " fill="#895C2A" transform="translate(128,31)"/>
<path d="M0 0 C1.59239395 8.10043881 1.59239395 8.10043881 -0.6875 11.5625 C-3 13 -3 13 -7 13 C-9.34476551 13.6252708 -11.68060793 14.2863409 -14 15 C-12.68 13.35 -11.36 11.7 -10 10 C-10 10.66 -10 11.32 -10 12 C-9.34 12 -8.68 12 -8 12 C-7.95101562 11.14535156 -7.90203125 10.29070313 -7.8515625 9.41015625 C-7.73941406 7.75306641 -7.73941406 7.75306641 -7.625 6.0625 C-7.55539063 4.96035156 -7.48578125 3.85820313 -7.4140625 2.72265625 C-7.27742188 1.82417969 -7.14078125 0.92570312 -7 0 C-4.3333581 -1.33332095 -2.83319697 -0.67102033 0 0 Z " fill="#BF9857" transform="translate(92,41)"/>
<path d="M0 0 C-0.44472656 0.84304687 -0.44472656 0.84304687 -0.8984375 1.703125 C-2.00943503 4.01967305 -2.83464706 6.30709092 -3.625 8.75 C-3.88539062 9.54921875 -4.14578125 10.3484375 -4.4140625 11.171875 C-4.60742188 11.77515625 -4.80078125 12.3784375 -5 13 C-7.31 12.67 -9.62 12.34 -12 12 C-12.33 12.66 -12.66 13.32 -13 14 C-12.66663876 7.55501593 -11.77418181 4.44866941 -7 0 C-4.01820039 -1.04016265 -2.83227587 -1.41613794 0 0 Z " fill="#E8CC84" transform="translate(114,30)"/>
<path d="M0 0 C1.9375 0.5625 1.9375 0.5625 4 2 C4.92678615 5.57474656 5.40411569 7.9492992 4.0625 11.4375 C3.711875 11.953125 3.36125 12.46875 3 13 C0.69 13 -1.62 13 -4 13 C-4 13.99 -4 14.98 -4 16 C-4.66 16 -5.32 16 -6 16 C-5.57764318 13.70549415 -5.13663083 11.41441562 -4.6875 9.125 C-4.44386719 7.84882812 -4.20023438 6.57265625 -3.94921875 5.2578125 C-3 2 -3 2 0 0 Z " fill="#D6B66C" transform="translate(136,40)"/>
<path d="M0 0 C8.58 0 17.16 0 26 0 C25.67 1.32 25.34 2.64 25 4 C13.615 3.505 13.615 3.505 2 3 C2.33 4.65 2.66 6.3 3 8 C2.01 8 1.02 8 0 8 C0 5.36 0 2.72 0 0 Z " fill="#8F6842" transform="translate(129,20)"/>
<path d="M0 0 C0 4.95 0 9.9 0 15 C-0.66 15 -1.32 15 -2 15 C-2.66 14.01 -3.32 13.02 -4 12 C-4.99 11.67 -5.98 11.34 -7 11 C-7 7.37 -7 3.74 -7 0 C-4 -1 -4 -1 0 0 Z " fill="#A37931" transform="translate(23,41)"/>
<path d="M0 0 C0.4140625 2.94140625 0.4140625 2.94140625 0.625 6.5625 C0.69976562 7.76003906 0.77453125 8.95757812 0.8515625 10.19140625 C0.90054688 11.11824219 0.94953125 12.04507812 1 13 C0.34 12.67 -0.32 12.34 -1 12 C-5.24241509 11.8631479 -8.91627936 11.7900087 -13 13 C-16 13 -16 13 -18 12 C-12.4174808 8.67424388 -8.50313209 7.53549057 -2 8 C-2 5.69 -2 3.38 -2 1 C-6.29 1 -10.58 1 -15 1 C-15 0.67 -15 0.34 -15 0 C-12.87562788 -0.19448477 -10.75046809 -0.38038289 -8.625 -0.5625 C-7.44164063 -0.66691406 -6.25828125 -0.77132813 -5.0390625 -0.87890625 C-2 -1 -2 -1 0 0 Z " fill="#EDD68E" transform="translate(126,18)"/>
<path d="M0 0 C-0.33 1.98 -0.66 3.96 -1 6 C1.64 6.66 4.28 7.32 7 8 C4.8125 10.0625 4.8125 10.0625 2 12 C-1.42673626 11.83284213 -4.02350522 10.65360821 -7 9 C-7 6.36 -7 3.72 -7 1 C-4.53721199 -0.231394 -2.7204945 -0.07159196 0 0 Z " fill="#916121" transform="translate(142,69)"/>
<path d="M0 0 C-2.62556439 1.75037626 -5.08629437 2.99622913 -7.9375 4.3125 C-11.98774489 6.34352659 -14.80112322 7.88905646 -17 12 C-17.57989531 14.70281642 -17.81197488 17.22662944 -18 20 C-17.1028125 19.6596875 -17.1028125 19.6596875 -16.1875 19.3125 C-15.465625 19.209375 -14.74375 19.10625 -14 19 C-12.25 20.4375 -12.25 20.4375 -11 22 C-11.33 22.66 -11.66 23.32 -12 24 C-12.99 23.34 -13.98 22.68 -15 22 C-15 22.66 -15 23.32 -15 24 C-15.66 24 -16.32 24 -17 24 C-17.33 24.66 -17.66 25.32 -18 26 C-20.98701327 21.5194801 -20.58763257 17.25102433 -20 12 C-17.51574263 6.41042091 -13.28612673 3.72447189 -8 1 C-5.07175348 0.02391783 -3.04386724 -0.08226668 0 0 Z " fill="#9D7032" transform="translate(72,25)"/>
<path d="M0 0 C2.64 0 5.28 0 8 0 C8.66 1.32 9.32 2.64 10 4 C10.66 4 11.32 4 12 4 C12 7.3 12 10.6 12 14 C11.67 14 11.34 14 11 14 C10.855625 12.741875 10.71125 11.48375 10.5625 10.1875 C10.13357299 7.95170303 10.13357299 7.95170303 9 6 C6.01169293 4.32283314 3.39104646 3.77509633 0 3 C0 8.28 0 13.56 0 19 C-0.66 19 -1.32 19 -2 19 C-2.05428973 16.77110504 -2.09292338 14.54182529 -2.125 12.3125 C-2.15980469 10.45044922 -2.15980469 10.45044922 -2.1953125 8.55078125 C-2.01032021 5.18762143 -1.45767895 3.0014413 0 0 Z " fill="#B08A57" transform="translate(26,21)"/>
<path d="M0 0 C-2.91765 1.9451 -4.62537285 2.45276317 -8 3 C-7.39671875 3.17015625 -6.7934375 3.3403125 -6.171875 3.515625 C2.36452614 6.10408212 2.36452614 6.10408212 5 10 C5.25 12.75 5.25 12.75 5 15 C4.34 14.01 3.68 13.02 3 12 C1.06531289 9.14691542 1.06531289 9.14691542 -2 7 C-5.37495967 6.57619189 -8.6175113 6.70444274 -12 7 C-12 7.66 -12 8.32 -12 9 C-12.66 9 -13.32 9 -14 9 C-14 12.3 -14 15.6 -14 19 C-14.33 19 -14.66 19 -15 19 C-15.86105208 7.17488474 -15.86105208 7.17488474 -12.625 3.3125 C-8.23635288 -0.55368913 -5.67496333 -0.09153167 0 0 Z " fill="#AF8C63" transform="translate(125,29)"/>
<path d="M0 0 C0.33 0 0.66 0 1 0 C1.06058594 0.62648437 1.12117188 1.25296875 1.18359375 1.8984375 C1.26738281 2.71570312 1.35117187 3.53296875 1.4375 4.375 C1.51871094 5.18710937 1.59992187 5.99921875 1.68359375 6.8359375 C1.89090114 9.04272805 1.89090114 9.04272805 3 11 C3.99 10.67 4.98 10.34 6 10 C6 9.34 6 8.68 6 8 C7.32 8.66 8.64 9.32 10 10 C10 10.99 10 11.98 10 13 C9.01 13.33 8.02 13.66 7 14 C6.34 14.66 5.68 15.32 5 16 C4.67 16 4.34 16 4 16 C5.63412443 17.70840281 6.86906094 18.93453047 9 20 C9.625 22.0625 9.625 22.0625 10 24 C6.36406523 23.1689292 4.37105095 21.66971955 2.1875 18.75 C-1.23710855 12.97097307 -0.40979678 6.48389577 0 0 Z " fill="#B1894F" transform="translate(51,39)"/>
<path d="M0 0 C10.56 0 21.12 0 32 0 C32 2.31 32 4.62 32 7 C31.34 7 30.68 7 30 7 C30 5.35 30 3.7 30 2 C21.75 2 13.5 2 5 2 C4.67 2.66 4.34 3.32 4 4 C2.68 2.68 1.36 1.36 0 0 Z " fill="#7C4918" transform="translate(44,19)"/>
<path d="M0 0 C1.32 0.66 2.64 1.32 4 2 C-2.13173291 7.73497372 -7.73923569 9.20145945 -16 10 C-16 8.68 -16 7.36 -16 6 C-14.25183142 5.49363393 -12.50137737 4.99515381 -10.75 4.5 C-9.77546875 4.2215625 -8.8009375 3.943125 -7.796875 3.65625 C-5 3 -5 3 -1 3 C-0.67 2.01 -0.34 1.02 0 0 Z " fill="#B58F67" transform="translate(42,40)"/>
<path d="M0 0 C6.52026887 -0.33153909 9.82569019 0.15406706 14.8125 4.625 C16.61868903 8.23737806 16.74345188 12.04221203 16 16 C15.01 16.99 14.02 17.98 13 19 C13.33 15.04 13.66 11.08 14 7 C13.34 7 12.68 7 12 7 C11.34 6.01 10.68 5.02 10 4 C8.03638136 3.42251197 8.03638136 3.42251197 5.875 3.3125 C4.59625 3.209375 3.3175 3.10625 2 3 C1.67 4.65 1.34 6.3 1 8 C0.67 8 0.34 8 0 8 C0 5.36 0 2.72 0 0 Z " fill="#885721" transform="translate(24,18)"/>
<path d="M0 0 C0.33 0.99 0.66 1.98 1 3 C0.34 3 -0.32 3 -1 3 C-1.103125 3.61875 -1.20625 4.2375 -1.3125 4.875 C-2 7 -2 7 -5 9 C-5.33 9.99 -5.66 10.98 -6 12 C-4.02 12 -2.04 12 0 12 C0 15 0 15 -0.625 17.0625 C-0.74875 17.701875 -0.8725 18.34125 -1 19 C-0.34 19.66 0.32 20.32 1 21 C0.01 21.33 -0.98 21.66 -2 22 C-2.66 21.67 -3.32 21.34 -4 21 C-3.34 19.68 -2.68 18.36 -2 17 C-2.66 16.67 -3.32 16.34 -4 16 C-4 15.01 -4 14.02 -4 13 C-4.99 13.33 -5.98 13.66 -7 14 C-7 10.37 -7 6.74 -7 3 C-4.69 2.01 -2.38 1.02 0 0 Z " fill="#C39F55" transform="translate(164,27)"/>
<path d="M0 0 C0.33 0 0.66 0 1 0 C1.07453648 5.55010083 1.12878399 11.09990586 1.16479492 16.65039062 C1.17981793 18.53585897 1.20024231 20.42129275 1.22631836 22.30664062 C1.26298863 25.0274309 1.27979146 27.74775641 1.29296875 30.46875 C1.30845261 31.30241089 1.32393646 32.13607178 1.33988953 32.99499512 C1.34228687 41.46133302 -1.04978763 47.89721809 -7 54 C-7.66 54 -8.32 54 -9 54 C-7.89969824 51.52432105 -6.75891747 49.71371449 -5 47.625 C-0.82409933 42.14413037 -0.67892802 36.50102955 -0.5859375 29.8828125 C-0.56657135 29.02565643 -0.5472052 28.16850037 -0.5272522 27.28536987 C-0.46778744 24.56534572 -0.42120431 21.84527848 -0.375 19.125 C-0.3367897 17.27341972 -0.29773622 15.42185663 -0.2578125 13.5703125 C-0.16211336 9.04701575 -0.07796094 4.52363584 0 0 Z " fill="#C7AF88" transform="translate(166,26)"/>
<path d="M0 0 C2.8125 0.125 2.8125 0.125 6 1 C7.37868281 2.62935241 8.71274093 4.29749607 10 6 C14.30218791 8.45839309 19.14707134 8.59823249 24 9 C24 9.99 24 10.98 24 12 C23.27683594 11.85304688 22.55367187 11.70609375 21.80859375 11.5546875 C20.05430414 11.2082214 18.29676446 10.87740743 16.53515625 10.5703125 C8.89354048 9.19409734 3.64396074 7.60871337 -1 1 C-0.67 0.67 -0.34 0.34 0 0 Z " fill="#A87A32" transform="translate(104,50)"/>
<path d="M0 0 C0.66 0 1.32 0 2 0 C3.58055866 4.74167597 3.48247327 8.57938426 1.875 13.3125 C-0.44564989 16.63876485 -2.14797929 17.01650535 -6 18 C-6.66 18.66 -7.32 19.32 -8 20 C-8.99 19.34 -9.98 18.68 -11 18 C-11 17.34 -11 16.68 -11 16 C-10.01 16 -9.02 16 -8 16 C-7.67 15.34 -7.34 14.68 -7 14 C-5.68 14.33 -4.36 14.66 -3 15 C-0.73045369 11.59568053 -0.63450051 9.83475798 -0.375 5.8125 C-0.30023438 4.72582031 -0.22546875 3.63914063 -0.1484375 2.51953125 C-0.09945312 1.68808594 -0.05046875 0.85664062 0 0 Z " fill="#9C6D3D" transform="translate(93,38)"/>
<path d="M0 0 C7.59 0 15.18 0 23 0 C23 0.99 23 1.98 23 3 C24.32 3.66 25.64 4.32 27 5 C27 5.33 27 5.66 27 6 C25.98679687 6.18175781 25.98679687 6.18175781 24.953125 6.3671875 C24.06109375 6.53476562 23.1690625 6.70234375 22.25 6.875 C21.36828125 7.03742187 20.4865625 7.19984375 19.578125 7.3671875 C17.13052256 7.96796264 15.19400143 8.77997117 13 10 C13.33 9.34 13.66 8.68 14 8 C13.34 7.34 12.68 6.68 12 6 C18.625 3 18.625 3 22 3 C22 2.34 22 1.68 22 1 C14.74 1 7.48 1 0 1 C0 0.67 0 0.34 0 0 Z " fill="#CFB884" transform="translate(50,23)"/>
<path d="M0 0 C1.18239258 0.00676758 1.18239258 0.00676758 2.38867188 0.01367188 C4.32164761 0.02538688 6.25458393 0.04332002 8.1875 0.0625 C8.1875 0.3925 8.1875 0.7225 8.1875 1.0625 C10.4975 1.3925 12.8075 1.7225 15.1875 2.0625 C15.1875 2.3925 15.1875 2.7225 15.1875 3.0625 C10.72922074 3.1203304 6.2710372 3.15603855 1.8125 3.1875 C0.54148437 3.20425781 -0.72953125 3.22101562 -2.0390625 3.23828125 C-3.25078125 3.24472656 -4.4625 3.25117188 -5.7109375 3.2578125 C-6.83161621 3.26828613 -7.95229492 3.27875977 -9.10693359 3.28955078 C-11.8125 3.0625 -11.8125 3.0625 -13.8125 1.0625 C-9.18790756 -0.11450048 -4.73383538 -0.05158412 0 0 Z " fill="#D0AA5A" transform="translate(59.8125,15.9375)"/>
<path d="M0 0 C1.65 0 3.3 0 5 0 C3.55767936 3.57478396 1.83879097 5.11081448 -1.375 7.1875 C-2.53128906 7.95126953 -2.53128906 7.95126953 -3.7109375 8.73046875 C-9.54004214 11.96333395 -16.27388035 11.76522657 -22.5625 10 C-23.366875 9.67 -24.17125 9.34 -25 9 C-20.2061515 7.46596848 -15.2843766 7.97823091 -10.3125 8.0625 C-7.61794711 8.01165938 -5.54141157 7.8132517 -3 7 C-2.87625 6.38125 -2.7525 5.7625 -2.625 5.125 C-2 3 -2 3 0 1 C0 0.67 0 0.34 0 0 Z " fill="#BAA898" transform="translate(86,55)"/>
<path d="M0 0 C-0.33 0.99 -0.66 1.98 -1 3 C-1.58007812 3.06058594 -2.16015625 3.12117188 -2.7578125 3.18359375 C-7.20092863 3.66016561 -11.59905423 4.21008666 -16 5 C-15.97679687 5.74765625 -15.95359375 6.4953125 -15.9296875 7.265625 C-15.91164063 8.25046875 -15.89359375 9.2353125 -15.875 10.25 C-15.85179687 11.22453125 -15.82859375 12.1990625 -15.8046875 13.203125 C-16 16 -16 16 -18 20 C-18 14.06 -18 8.12 -18 2 C-15.40125 1.67 -12.8025 1.34 -10.125 1 C-8.89934326 0.84337891 -8.89934326 0.84337891 -7.64892578 0.68359375 C-2.22222222 0 -2.22222222 0 0 0 Z " fill="#9D6B2F" transform="translate(42,41)"/>
<path d="M0 0 C0.33 0 0.66 0 1 0 C1.02578125 0.72445312 1.0515625 1.44890625 1.078125 2.1953125 C1.55483655 10.33653142 1.55483655 10.33653142 6 17 C9.61416517 18.43917432 9.61416517 18.43917432 13 19 C12.67 19.66 12.34 20.32 12 21 C5.86669864 20.63200192 3.09900538 19.39179148 -1 15 C-1.875 11.6875 -1.875 11.6875 -2 9 C-1.67 9 -1.34 9 -1 9 C-0.67 6.03 -0.34 3.06 0 0 Z " fill="#D4BD8F" transform="translate(111,38)"/>
<path d="M0 0 C3.1875 -0.25 3.1875 -0.25 6 0 C4.27137715 4.55727842 1.18330285 5.90834857 -3 8 C-6.5 8.1875 -6.5 8.1875 -10 8 C-10.66 7.34 -11.32 6.68 -12 6 C-11.07767578 5.85304688 -11.07767578 5.85304688 -10.13671875 5.703125 C-5.09294719 4.76998704 -2.99636339 4.28051913 0 0 Z " fill="#966722" transform="translate(156,72)"/>
<path d="M0 0 C7.21157864 0.32051461 11.74155286 1.74155286 17 7 C16.67 7.99 16.34 8.98 16 10 C15.38125 9.195625 14.7625 8.39125 14.125 7.5625 C12.25835959 4.96125481 12.25835959 4.96125481 10 4 C8.62657169 3.9310528 7.24997898 3.91532292 5.875 3.9375 C4.59625 3.958125 3.3175 3.97875 2 4 C0.68 6.64 -0.64 9.28 -2 12 C-2.33 12 -2.66 12 -3 12 C-3.34833144 7.12335991 -2.41685712 4.22949995 0 0 Z " fill="#B19574" transform="translate(65,32)"/>
<path d="M0 0 C6.93 0 13.86 0 21 0 C20.01 1.485 20.01 1.485 19 3 C16.47802734 3.34057617 16.47802734 3.34057617 13.3359375 3.29296875 C12.21445313 3.28330078 11.09296875 3.27363281 9.9375 3.26367188 C8.761875 3.23853516 7.58625 3.21339844 6.375 3.1875 C4.59996094 3.16719727 4.59996094 3.16719727 2.7890625 3.14648438 C-0.14107539 3.11103916 -3.07031459 3.06162769 -6 3 C-6 2.67 -6 2.34 -6 2 C-4.02 1.67 -2.04 1.34 0 1 C0 0.67 0 0.34 0 0 Z " fill="#E7CB7F" transform="translate(137,16)"/>
<path d="M0 0 C3.125 -0.1875 3.125 -0.1875 6 0 C6.66 2.31 7.32 4.62 8 7 C10.33165034 7.33498301 10.33165034 7.33498301 13 7 C15.31377147 5.10415891 15.31377147 5.10415891 17 3 C16.38722388 5.96175123 15.74627478 7.38058783 14 10 C10.625 10.4375 10.625 10.4375 7 10 C4.5625 8 4.5625 8 3 6 C3.66 5.67 4.32 5.34 5 5 C4.67 4.34 4.34 3.68 4 3 C2.02 3 0.04 3 -2 3 C-1.34 2.01 -0.68 1.02 0 0 Z " fill="#CDAC70" transform="translate(137,67)"/>
<path d="M0 0 C-0.83144531 0.38671875 -1.66289063 0.7734375 -2.51953125 1.171875 C-3.60621094 1.69265625 -4.69289063 2.2134375 -5.8125 2.75 C-6.89144531 3.26046875 -7.97039062 3.7709375 -9.08203125 4.296875 C-13.30817528 6.76354006 -14.92590134 9.70365278 -17 14 C-17.33 14.33 -17.66 14.66 -18 15 C-18.36760731 17.32817964 -18.70241581 19.6618385 -19 22 C-19.33 22 -19.66 22 -20 22 C-20.36445586 14.95385339 -19.45819276 10.94983131 -14.8125 5.375 C-10.39316386 1.64311615 -5.88183429 -2.01737746 0 0 Z " fill="#AC834C" transform="translate(118,26)"/>
<path d="M0 0 C2.33333333 2.33333333 4.66666667 4.66666667 7 7 C8.31747324 7.69748583 9.64914193 8.36959957 11 9 C7.30962722 10.37095624 5.29116165 9.60010967 1.75 8.0625 C0.85796875 7.68222656 -0.0340625 7.30195312 -0.953125 6.91015625 C-1.62859375 6.60980469 -2.3040625 6.30945312 -3 6 C-3 4.68 -3 3.36 -3 2 C-2.01 2 -1.02 2 0 2 C0 1.34 0 0.68 0 0 Z " fill="#AE8139" transform="translate(61,50)"/>
<path d="M0 0 C0.33 0.66 0.66 1.32 1 2 C1.66 2.144375 2.32 2.28875 3 2.4375 C3.66 2.623125 4.32 2.80875 5 3 C5.33 3.99 5.66 4.98 6 6 C6.66 6 7.32 6 8 6 C8 6.99 8 7.98 8 9 C7.01 9 6.02 9 5 9 C4.67 9.66 4.34 10.32 4 11 C2.68 10.67 1.36 10.34 0 10 C0 6.7 0 3.4 0 0 Z " fill="#946925" transform="translate(15,50)"/>
<path d="M0 0 C6.15234375 -0.09765625 6.15234375 -0.09765625 8 0 C9 1 9 1 9.11352539 4.60180664 C9.11336625 6.20459856 9.10767063 7.8073956 9.09765625 9.41015625 C9.0962413 10.25219101 9.09482635 11.09422577 9.09336853 11.96177673 C9.08775263 14.66205335 9.07519748 17.36224828 9.0625 20.0625 C9.05748705 21.88867068 9.05292379 23.71484266 9.04882812 25.54101562 C9.03777804 30.02737542 9.02050279 34.51367384 9 39 C8.67 39 8.34 39 8 39 C7.67 27.12 7.34 15.24 7 3 C4.69 2.34 2.38 1.68 0 1 C0 0.67 0 0.34 0 0 Z " fill="#B7A187" transform="translate(5,23)"/>
<path d="M0 0 C1.23732894 1.85599341 2.45089946 3.72837606 3.625 5.625 C6.98279614 8.98279614 9.33378798 8.7666894 14 9 C13.01 9.33 12.02 9.66 11 10 C11 10.66 11 11.32 11 12 C7.46400002 11.92928 4.8958137 11.80836985 2.19921875 9.375 C0.72324972 7.62779084 -0.67266996 5.86215167 -2 4 C-1.34 2.68 -0.68 1.36 0 0 Z " fill="#E5D6B4" transform="translate(64,47)"/>
<path d="M0 0 C0.66 0 1.32 0 2 0 C2 0.99 2 1.98 2 3 C2.99 3.33 3.98 3.66 5 4 C4.01 5.32 3.02 6.64 2 8 C2.66 8.33 3.32 8.66 4 9 C3.01 9.495 3.01 9.495 2 10 C1.34 9.67 0.68 9.34 0 9 C0.95865509 11.33075929 0.95865509 11.33075929 4 13 C2.35 13.33 0.7 13.66 -1 14 C-1.02685938 11.85423363 -1.04633088 9.70837355 -1.0625 7.5625 C-1.07410156 6.36753906 -1.08570313 5.17257813 -1.09765625 3.94140625 C-1 1 -1 1 0 0 Z " fill="#C09B4E" transform="translate(158,40)"/>
<path d="M0 0 C0.33 0 0.66 0 1 0 C1.33 2.64 1.66 5.28 2 8 C7.08940744 10.05362055 11.54520815 11.43179252 17 12 C17 12.33 17 12.66 17 13 C15.27119018 13.05449838 13.54187288 13.09301688 11.8125 13.125 C10.84957031 13.14820312 9.88664063 13.17140625 8.89453125 13.1953125 C5.8401777 12.98921577 3.73442479 12.35039256 1 11 C-1.2620084 8.22389878 -0.98845062 6.8845062 -0.625 3.25 C-0.41875 2.1775 -0.2125 1.105 0 0 Z " fill="#A68D74" transform="translate(134,70)"/>
<path d="M0 0 C0.33 0.66 0.66 1.32 1 2 C1.99 2.33 2.98 2.66 4 3 C4.33 2.01 4.66 1.02 5 0 C5.33 1.32 5.66 2.64 6 4 C5.34 4 4.68 4 4 4 C4.33 4.99 4.66 5.98 5 7 C1.7 6.67 -1.6 6.34 -5 6 C-5 5.67 -5 5.34 -5 5 C-6.65 4.67 -8.3 4.34 -10 4 C-10 3.67 -10 3.34 -10 3 C-8.72125 2.87625 -7.4425 2.7525 -6.125 2.625 C-2.65209064 2.30957601 -2.65209064 2.30957601 0 0 Z " fill="#C29B58" transform="translate(128,53)"/>
<path d="M0 0 C5.01009707 1.43145631 7.10619424 3.82951522 10 8 C9.67 8.99 9.34 9.98 9 11 C7.35 10.67 5.7 10.34 4 10 C3.67 10.66 3.34 11.32 3 12 C0 7.25 0 7.25 0 5 C0.66 5 1.32 5 2 5 C2.99 6.485 2.99 6.485 4 8 C4.33 7.01 4.66 6.02 5 5 C3.35 3.35 1.7 1.7 0 0 Z " fill="#E6CF95" transform="translate(82,28)"/>
<path d="M0 0 C-1.75 7.75 -1.75 7.75 -4 10 C-4.33 8.35 -4.66 6.7 -5 5 C-8.0745356 5.7763932 -8.0745356 5.7763932 -10 8 C-9.16513153 2.15592068 -5.85032849 -0.6500365 0 0 Z " fill="#CCAA5D" transform="translate(65,30)"/>
<path d="M0 0 C3.82321537 3.69988584 5.15404392 5.47894114 5.25 10.8125 C5.22561502 15.02500523 4.7039031 17.62012113 2 21 C1.34 20.67 0.68 20.34 0 20 C0.32484375 19.44054687 0.6496875 18.88109375 0.984375 18.3046875 C3.19361494 13.29141225 2.42102048 7.52619926 1 2.375 C0.67 1.59125 0.34 0.8075 0 0 Z " fill="#B28951" transform="translate(138,33)"/>
<path d="M0 0 C0.6875 1.8125 0.6875 1.8125 1 4 C-0.4375 5.75 -0.4375 5.75 -2 7 C-1.34 7.33 -0.68 7.66 0 8 C-4.875 11 -4.875 11 -6 11 C-5.91291331 9.54054712 -5.80473093 8.08234132 -5.6875 6.625 C-5.62949219 5.81289063 -5.57148438 5.00078125 -5.51171875 4.1640625 C-4.77930591 1.06668303 -3.17720825 0 0 0 Z " fill="#A97F36" transform="translate(163,56)"/>
<path d="M0 0 C0 1.98 0 3.96 0 6 C-1.98 6.33 -3.96 6.66 -6 7 C-6.33 4.69 -6.66 2.38 -7 0 C-4.3333581 -1.33332095 -2.83319697 -0.67102033 0 0 Z " fill="#C79E4E" transform="translate(92,41)"/>
<path d="M0 0 C1.98 0 3.96 0 6 0 C6 0.33 6 0.66 6 1 C13.26 1.33 20.52 1.66 28 2 C28 2.33 28 2.66 28 3 C18.43 3 8.86 3 -1 3 C-0.67 2.01 -0.34 1.02 0 0 Z " fill="#CBA960" transform="translate(83,16)"/>
<path d="M0 0 C0.33 0.66 0.66 1.32 1 2 C-0.76949612 2.50471197 -2.54065223 3.00360685 -4.3125 3.5 C-5.79169922 3.91765625 -5.79169922 3.91765625 -7.30078125 4.34375 C-10.32048467 5.07791812 -12.17729011 5.41135495 -15 4 C-9.77228537 0.95842058 -6.07328688 -0.50610724 0 0 Z " fill="#EDDCA0" transform="translate(123,26)"/>
<path d="M0 0 C2.64 0 5.28 0 8 0 C8.66 1.32 9.32 2.64 10 4 C10.66 4 11.32 4 12 4 C12 7.3 12 10.6 12 14 C11.67 14 11.34 14 11 14 C10.5978125 12.1128125 10.5978125 12.1128125 10.1875 10.1875 C9.15002371 5.89594089 9.15002371 5.89594089 6 3 C2.89160979 2.2730774 2.89160979 2.2730774 0 2 C0 1.34 0 0.68 0 0 Z " fill="#907963" transform="translate(26,21)"/>
<path d="M0 0 C4.95 0 9.9 0 15 0 C15 0.99 15 1.98 15 3 C11.04 3 7.08 3 3 3 C3 2.34 3 1.68 3 1 C2.01 0.67 1.02 0.34 0 0 Z " fill="#EACF85" transform="translate(159,16)"/>
<path d="M0 0 C0.33 0 0.66 0 1 0 C1 2.64 1 5.28 1 8 C-1.97 7.67 -4.94 7.34 -8 7 C-7.67 5.68 -7.34 4.36 -7 3 C-5.02 3 -3.04 3 -1 3 C-0.67 2.01 -0.34 1.02 0 0 Z " fill="#C7A35A" transform="translate(109,39)"/>
<path d="M0 0 C0.33 0 0.66 0 1 0 C1.04254356 1.99954746 1.04080783 4.00041636 1 6 C0 7 0 7 -2.06640625 7.09765625 C-2.89011719 7.08605469 -3.71382812 7.07445312 -4.5625 7.0625 C-5.38878906 7.05347656 -6.21507812 7.04445313 -7.06640625 7.03515625 C-7.70449219 7.02355469 -8.34257812 7.01195312 -9 7 C-9 6.01 -9 5.02 -9 4 C-6.36 4 -3.72 4 -1 4 C-0.67 2.68 -0.34 1.36 0 0 Z " fill="#A6804E" transform="translate(175,15)"/>
<path d="M0 0 C0 1.65 0 3.3 0 5 C-2.31 5 -4.62 5 -7 5 C-7 5.99 -7 6.98 -7 8 C-7.66 8 -8.32 8 -9 8 C-8.40138258 5.64828869 -7.73075648 3.3140622 -7 1 C-4.53721199 -0.231394 -2.7204945 -0.07159196 0 0 Z " fill="#D0AE64" transform="translate(139,48)"/>
<path d="M0 0 C-3.43551299 2.29034199 -7.00833198 3.99226562 -10.72265625 5.78125 C-13.11122506 6.91802531 -13.11122506 6.91802531 -15 9 C-15.99 8.67 -16.98 8.34 -18 8 C-12.73855392 3.25186573 -7.46981567 -0.67907415 0 0 Z " fill="#A88049" transform="translate(72,25)"/>
<path d="M0 0 C0.99 0.495 0.99 0.495 2 1 C2 1.99 2 2.98 2 4 C4.31 4 6.62 4 9 4 C9.33 4.66 9.66 5.32 10 6 C6.78548731 7.60725635 3.56387464 7.05748185 0 7 C0 4.69 0 2.38 0 0 Z " fill="#8F693B" transform="translate(5,15)"/>
<path d="M0 0 C6.27 0 12.54 0 19 0 C19 2.31 19 4.62 19 7 C18.34 7 17.68 7 17 7 C17 5.35 17 3.7 17 2 C11.39 1.67 5.78 1.34 0 1 C0 0.67 0 0.34 0 0 Z " fill="#7F480D" transform="translate(105,19)"/>
<path d="M0 0 C-0.99 0.33 -1.98 0.66 -3 1 C-3 1.66 -3 2.32 -3 3 C-7.455 3.495 -7.455 3.495 -12 4 C-12 2.68 -12 1.36 -12 0 C-10.37585622 -0.19477739 -8.75063577 -0.38059458 -7.125 -0.5625 C-6.22007813 -0.66691406 -5.31515625 -0.77132812 -4.3828125 -0.87890625 C-2 -1 -2 -1 0 0 Z " fill="#9F856D" transform="translate(38,46)"/>
<path d="M0 0 C-0.52268466 2.76276177 -1.10869587 5.3260876 -2 8 C-3.32 8 -4.64 8 -6 8 C-6.1875 5.125 -6.1875 5.125 -6 2 C-3 0 -3 0 0 0 Z " fill="#C69E51" transform="translate(60,35)"/>
<path d="M0 0 C1.4606285 2.64738916 2 3.89448334 2 7 C-0.31 7 -2.62 7 -5 7 C-4.60196439 4.11424181 -4.20990931 3.17810487 -1.9375 1.25 C-1.298125 0.8375 -0.65875 0.425 0 0 Z " fill="#AD8741" transform="translate(163,32)"/>
<path d="M0 0 C1.65 0 3.3 0 5 0 C5 0.66 5 1.32 5 2 C5.71027344 2.04898438 6.42054687 2.09796875 7.15234375 2.1484375 C8.53099609 2.26058594 8.53099609 2.26058594 9.9375 2.375 C11.31228516 2.47941406 11.31228516 2.47941406 12.71484375 2.5859375 C13.84599609 2.79089844 13.84599609 2.79089844 15 3 C15.33 3.66 15.66 4.32 16 5 C6.31912716 5.68875775 6.31912716 5.68875775 2.375 3.0625 C1.59125 2.381875 0.8075 1.70125 0 1 C0 0.67 0 0.34 0 0 Z " fill="#975F26" transform="translate(108,57)"/>
<path d="M0 0 C1.98 0.495 1.98 0.495 4 1 C4 1.66 4 2.32 4 3 C4.66 3 5.32 3 6 3 C6 3.99 6 4.98 6 6 C4.02 6 2.04 6 0 6 C-0.33 6.66 -0.66 7.32 -1 8 C-0.67 5.36 -0.34 2.72 0 0 Z " fill="#DDBD72" transform="translate(102,36)"/>
<path d="M0 0 C2 3 2 3 3.375 5.5625 C4.78293921 8.11111445 4.78293921 8.11111445 7.125 9.0625 C9 10 9 10 9.75 12.125 C9.87375 13.053125 9.87375 13.053125 10 14 C6.00242773 13.0862692 4.35087533 11.45041694 2.1875 8.125 C0.21236696 4.92832315 0 3.97587624 0 0 Z " fill="#B2A291" transform="translate(51,49)"/>
<path d="M0 0 C2.9375 0.1875 2.9375 0.1875 6 1 C7.375 3.0625 7.375 3.0625 8 5 C6.02 5.99 6.02 5.99 4 7 C2.35 5.02 0.7 3.04 -1 1 C-0.67 0.67 -0.34 0.34 0 0 Z " fill="#B08439" transform="translate(104,50)"/>
<path d="M0 0 C3.65316671 1.24976756 4.78065836 1.67098753 7 5 C7.125 7.6875 7.125 7.6875 7 10 C6.67 9.34 6.34 8.68 6 8 C5.01 8 4.02 8 3 8 C2.690625 7.05125 2.38125 6.1025 2.0625 5.125 C1.12605258 2.13919592 1.12605258 2.13919592 0 0 Z " fill="#D8BE83" transform="translate(132,28)"/>
<path d="M0 0 C2.31 0.66 4.62 1.32 7 2 C4.8125 4.0625 4.8125 4.0625 2 6 C-0.75 5.875 -0.75 5.875 -3 5 C-3.33 4.34 -3.66 3.68 -4 3 C-3.01 2.67 -2.02 2.34 -1 2 C-0.67 1.34 -0.34 0.68 0 0 Z " fill="#AC7D3D" transform="translate(142,75)"/>
<path d="M0 0 C1.65 0 3.3 0 5 0 C3.61122646 3.35620271 2.08322035 5.07298728 -1 7 C-1.66 7 -2.32 7 -3 7 C-2.42655063 4.13275314 -2.1385485 3.1385485 0 1 C0 0.67 0 0.34 0 0 Z " fill="#B89165" transform="translate(86,55)"/>
<path d="M0 0 C0.33 0.66 0.66 1.32 1 2 C-1.52475462 3.26237731 -3.31200466 3.09856404 -6.125 3.0625 C-7.03507812 3.05347656 -7.94515625 3.04445313 -8.8828125 3.03515625 C-9.58148437 3.02355469 -10.28015625 3.01195312 -11 3 C-10 1 -10 1 -8.22265625 0.33203125 C-7.15337891 0.07486328 -7.15337891 0.07486328 -6.0625 -0.1875 C-5.35222656 -0.36667969 -4.64195313 -0.54585937 -3.91015625 -0.73046875 C-2 -1 -2 -1 0 0 Z " fill="#D5BB85" transform="translate(35,39)"/>
<path d="M0 0 C0.89203125 0.00902344 1.7840625 0.01804687 2.703125 0.02734375 C3.37859375 0.03894531 4.0540625 0.05054688 4.75 0.0625 C3.06333824 2.13421959 2.26411144 3.0020163 -0.44140625 3.3203125 C-1.61509766 3.25457031 -1.61509766 3.25457031 -2.8125 3.1875 C-6.16157562 2.95764189 -6.16157562 2.95764189 -9.25 4.0625 C-9.25 3.0725 -9.25 2.0825 -9.25 1.0625 C-6.09493858 0.12630187 -3.28413498 -0.0432123 0 0 Z " fill="#C49C4A" transform="translate(31.25,15.9375)"/>
<path d="M0 0 C3.33333333 3.33333333 6.66666667 6.66666667 10 10 C6.6875 9.375 6.6875 9.375 3 8 C1.22222334 5.24731356 0 3.31026991 0 0 Z " fill="#996F46" transform="translate(99,49)"/>
<path d="M0 0 C1.32 1.32 2.64 2.64 4 4 C1.35261084 5.4606285 0.10551666 6 -3 6 C-3 4.68 -3 3.36 -3 2 C-2.01 2 -1.02 2 0 2 C0 1.34 0 0.68 0 0 Z " fill="#A57833" transform="translate(61,50)"/>
<path d="M0 0 C0.33 0.99 0.66 1.98 1 3 C0.07767578 2.98259766 0.07767578 2.98259766 -0.86328125 2.96484375 C-2.07564453 2.95130859 -2.07564453 2.95130859 -3.3125 2.9375 C-4.11300781 2.92589844 -4.91351563 2.91429687 -5.73828125 2.90234375 C-8.16861334 2.90342145 -8.16861334 2.90342145 -11 4 C-10.67 3.01 -10.34 2.02 -10 1 C-6.78548731 -0.60725635 -3.56387464 -0.05748185 0 0 Z " fill="#9F6A2F" transform="translate(77,29)"/>
<path d="M0 0 C0.66 0.33 1.32 0.66 2 1 C2.66 0.67 3.32 0.34 4 0 C4.33 2.31 4.66 4.62 5 7 C4.01 7.33 3.02 7.66 2 8 C0.4375 5.6875 0.4375 5.6875 -1 3 C-0.67 2.01 -0.34 1.02 0 0 Z " fill="#D2B060" transform="translate(76,23)"/>
<path d="M0 0 C4.51478398 0.53115106 7.34666857 2.36620292 11 5 C10.67 5.99 10.34 6.98 10 8 C9.278125 7.38125 8.55625 6.7625 7.8125 6.125 C5.21618062 4.16333647 3.05328334 3.04684 0 2 C0 1.34 0 0.68 0 0 Z " fill="#E1CA93" transform="translate(37,17)"/>
<path d="M0 0 C1.67542976 0.28604898 3.34385343 0.61781233 5 1 C5.33 2.65 5.66 4.3 6 6 C5.01 6.495 5.01 6.495 4 7 C4.33 5.68 4.66 4.36 5 3 C3.35 3 1.7 3 0 3 C-0.33 3.99 -0.66 4.98 -1 6 C-1.042721 4.33388095 -1.04063832 2.66617115 -1 1 C-0.67 0.67 -0.34 0.34 0 0 Z " fill="#E1C379" transform="translate(134,45)"/>
<path d="M0 0 C3 2 3 2 3.6875 4.125 C3.790625 4.74375 3.89375 5.3625 4 6 C1 6 1 6 -2 5 C-2.33 5.99 -2.66 6.98 -3 8 C-3.33 5.69 -3.66 3.38 -4 1 C-3.67 1.99 -3.34 2.98 -3 4 C-1.68 4 -0.36 4 1 4 C0.67 2.68 0.34 1.36 0 0 Z " fill="#B99047" transform="translate(57,39)"/>
<path d="M0 0 C1 3 1 3 0 5.1875 C-2 7 -2 7 -5.6875 7.25 C-6.780625 7.1675 -7.87375 7.085 -9 7 C-9.33 6.34 -9.66 5.68 -10 5 C-8.906875 4.9175 -7.81375 4.835 -6.6875 4.75 C-2.96723336 4.36310791 -2.96723336 4.36310791 -1.0625 1.9375 C-0.711875 1.298125 -0.36125 0.65875 0 0 Z " fill="#DFCAA1" transform="translate(153,70)"/>
<path d="M0 0 C4 0 4 0 5.75 1.25 C7 3 7 3 7 7 C6.34 7 5.68 7 5 7 C4.34 6.01 3.68 5.02 3 4 C2.01 3.67 1.02 3.34 0 3 C0 2.01 0 1.02 0 0 Z " fill="#996E27" transform="translate(16,49)"/>
<path d="M0 0 C1.5 1 1.5 1 3 3 C3.27345479 5.71846235 3.13491285 8.25677199 3 11 C2.67 11 2.34 11 2 11 C2 8.69 2 6.38 2 4 C-0.31 4 -2.62 4 -5 4 C-4.67 3.01 -4.34 2.02 -4 1 C-2.02 1.495 -2.02 1.495 0 2 C0 1.34 0 0.68 0 0 Z " fill="#D8B669" transform="translate(90,37)"/>
<path d="M0 0 C1.32 0 2.64 0 4 0 C4.33 0.99 4.66 1.98 5 3 C2 5 2 5 0 6 C-0.99 5.34 -1.98 4.68 -3 4 C-3 3.34 -3 2.68 -3 2 C-2.01 2 -1.02 2 0 2 C0 1.34 0 0.68 0 0 Z " fill="#A77C35" transform="translate(85,52)"/>
<path d="M0 0 C2 3 4 6 6 9 C3.125 8.3125 3.125 8.3125 0 7 C-1.375 4.375 -1.375 4.375 -2 2 C-1.34 1.34 -0.68 0.68 0 0 Z " fill="#D5B980" transform="translate(64,47)"/>
<path d="M0 0 C0.33 0 0.66 0 1 0 C1.22304441 1.74818591 1.4278645 3.49870323 1.625 5.25 C1.74101562 6.22453125 1.85703125 7.1990625 1.9765625 8.203125 C2.00112537 11.13429393 1.5312717 12.54528964 0 15 C-0.66 14.67 -1.32 14.34 -2 14 C-1.34 9.38 -0.68 4.76 0 0 Z " fill="#A07541" transform="translate(130,41)"/>
<path d="M0 0 C0.66 0.33 1.32 0.66 2 1 C0.85546875 2.48828125 0.85546875 2.48828125 -1 4 C-3.69921875 4.29296875 -3.69921875 4.29296875 -6.6875 4.1875 C-7.68136719 4.16042969 -8.67523438 4.13335937 -9.69921875 4.10546875 C-10.45847656 4.07066406 -11.21773438 4.03585938 -12 4 C-12 3.67 -12 3.34 -12 3 C-11.30132812 2.86722656 -10.60265625 2.73445313 -9.8828125 2.59765625 C-8.51769531 2.33275391 -8.51769531 2.33275391 -7.125 2.0625 C-6.22007813 1.88847656 -5.31515625 1.71445312 -4.3828125 1.53515625 C-2.00043683 1.10036299 -2.00043683 1.10036299 0 0 Z " fill="#9C7248" transform="translate(82,59)"/>
<path d="M0 0 C2.31 0 4.62 0 7 0 C7 0.66 7 1.32 7 2 C7.66 2 8.32 2 9 2 C9 2.66 9 3.32 9 4 C5.7 3.34 2.4 2.68 -1 2 C-0.67 1.34 -0.34 0.68 0 0 Z " fill="#85684C" transform="translate(69,31)"/>
<path d="M0 0 C2.97 0.495 2.97 0.495 6 1 C5.67 2.32 5.34 3.64 5 5 C2.525 4.01 2.525 4.01 0 3 C0 2.01 0 1.02 0 0 Z " fill="#C09A4F" transform="translate(42,29)"/>
<path d="M0 0 C0.99 0.33 1.98 0.66 3 1 C3 1.66 3 2.32 3 3 C3.66 3 4.32 3 5 3 C4.67 4.32 4.34 5.64 4 7 C4 6.34 4 5.68 4 5 C3.071875 4.7834375 3.071875 4.7834375 2.125 4.5625 C0 4 0 4 -2 3 C-1 1 -1 1 0 0 Z " fill="#B48D43" transform="translate(18,30)"/>
<path d="M0 0 C0.33 0.99 0.66 1.98 1 3 C0.34 3 -0.32 3 -1 3 C-1 3.66 -1 4.32 -1 5 C-2.65 4.67 -4.3 4.34 -6 4 C-6.33 4.99 -6.66 5.98 -7 7 C-7 5.68 -7 4.36 -7 3 C-4.69 2.01 -2.38 1.02 0 0 Z " fill="#D9B971" transform="translate(164,27)"/>
<path d="M0 0 C0.66 0.33 1.32 0.66 2 1 C2 1.66 2 2.32 2 3 C2.66 3 3.32 3 4 3 C4.33 4.32 4.66 5.64 5 7 C4.34 7 3.68 7 3 7 C2.34 6.34 1.68 5.68 1 5 C0.01 5 -0.98 5 -2 5 C-1.34 3.35 -0.68 1.7 0 0 Z " fill="#A47C31" transform="translate(18,26)"/>
<path d="M0 0 C1.98 0 3.96 0 6 0 C5.34 1.32 4.68 2.64 4 4 C2.35 3.67 0.7 3.34 -1 3 C-0.67 2.01 -0.34 1.02 0 0 Z " fill="#8A5E1C" transform="translate(156,72)"/>
<path d="M0 0 C0.33 0 0.66 0 1 0 C0.93993922 1.45947705 0.8511311 2.91779272 0.75 4.375 C0.70359375 5.18710937 0.6571875 5.99921875 0.609375 6.8359375 C0.30773437 7.90714844 0.30773437 7.90714844 0 9 C-1.98 9.99 -1.98 9.99 -4 11 C-2.68 7.37 -1.36 3.74 0 0 Z " fill="#A07643" transform="translate(142,43)"/>
<path d="M0 0 C0.33 0 0.66 0 1 0 C1 1.98 1 3.96 1 6 C2.98 5.67 4.96 5.34 7 5 C6.01 5.33 5.02 5.66 4 6 C4 6.66 4 7.32 4 8 C2.68 8.33 1.36 8.66 0 9 C0 6.03 0 3.06 0 0 Z " fill="#B38A41" transform="translate(85,42)"/>
<path d="M0 0 C0.66 0 1.32 0 2 0 C2 2.97 2 5.94 2 9 C0.62437146 7.71034824 -0.70766393 6.37310707 -2 5 C-2 4.34 -2 3.68 -2 3 C-1.01 3 -0.02 3 1 3 C0.67 2.01 0.34 1.02 0 0 Z " fill="#956C26" transform="translate(21,42)"/>
<path d="M0 0 C0.33 0 0.66 0 1 0 C1.33 1.98 1.66 3.96 2 6 C2.33 6 2.66 6 3 6 C3 7.65 3 9.3 3 11 C0.525 10.01 0.525 10.01 -2 9 C-1.34 6.03 -0.68 3.06 0 0 Z " fill="#DEC47C" transform="translate(124,20)"/>
<path d="M0 0 C-0.33 0.99 -0.66 1.98 -1 3 C-2.98 3 -4.96 3 -7 3 C-7 2.01 -7 1.02 -7 0 C-2.25 -1.125 -2.25 -1.125 0 0 Z " fill="#DCBE77" transform="translate(114,30)"/>
<path d="M0 0 C1.65 0 3.3 0 5 0 C5 0.99 5 1.98 5 3 C3.02 3.33 1.04 3.66 -1 4 C-0.67 2.68 -0.34 1.36 0 0 Z " fill="#E9CF87" transform="translate(158,26)"/>
<path d="M0 0 C0 0.99 0 1.98 0 3 C-1.98 3.33 -3.96 3.66 -6 4 C-6.33 3.01 -6.66 2.02 -7 1 C-4.53721199 -0.231394 -2.7204945 -0.07159196 0 0 Z " fill="#A7792D" transform="translate(142,69)"/>
<path d="M0 0 C0.66 0.33 1.32 0.66 2 1 C1.25 3.375 1.25 3.375 0 6 C-1.98 6.99 -1.98 6.99 -4 8 C-2.68 5.36 -1.36 2.72 0 0 Z " fill="#A67731" transform="translate(155,69)"/>
<path d="M0 0 C2.97 0.99 5.94 1.98 9 3 C9 3.33 9 3.66 9 4 C6.69 4 4.38 4 2 4 C1.34 2.68 0.68 1.36 0 0 Z " fill="#875A17" transform="translate(20,62)"/>
<path d="M0 0 C2.475 0.495 2.475 0.495 5 1 C5.33 2.32 5.66 3.64 6 5 C4.68 5.33 3.36 5.66 2 6 C2.33 5.34 2.66 4.68 3 4 C2.01 3.34 1.02 2.68 0 2 C0 1.34 0 0.68 0 0 Z " fill="#A87F37" transform="translate(158,49)"/>
<path d="M0 0 C1.98 0 3.96 0 6 0 C6 0.99 6 1.98 6 3 C3.03 2.505 3.03 2.505 0 2 C0 1.34 0 0.68 0 0 Z " fill="#E6D9B5" transform="translate(24,62)"/>
<path d="M0 0 C-0.33 0.66 -0.66 1.32 -1 2 C-3.64860427 2.59355614 -6.29197322 2.74209269 -9 3 C-8.01 2.67 -7.02 2.34 -6 2 C-6 1.34 -6 0.68 -6 0 C-3 -1 -3 -1 0 0 Z " fill="#A57B38" transform="translate(81,57)"/>
<path d="M0 0 C1.65 0 3.3 0 5 0 C5 0.99 5 1.98 5 3 C4.01 3 3.02 3 2 3 C1.67 3.66 1.34 4.32 1 5 C0.34 4.34 -0.32 3.68 -1 3 C-0.67 2.01 -0.34 1.02 0 0 Z " fill="#8B601C" transform="translate(18,56)"/>
<path d="M0 0 C0.66 0 1.32 0 2 0 C2 0.99 2 1.98 2 3 C2.99 3.33 3.98 3.66 5 4 C4.01 4.66 3.02 5.32 2 6 C1.01 5.01 0.02 4.02 -1 3 C-0.67 2.01 -0.34 1.02 0 0 Z " fill="#B78D41" transform="translate(158,40)"/>
<path d="M0 0 C0.33 0.99 0.66 1.98 1 3 C0.01 4.485 0.01 4.485 -1 6 C-2.32 5.67 -3.64 5.34 -5 5 C-3.35 3.35 -1.7 1.7 0 0 Z " fill="#8F5B2D" transform="translate(48,35)"/>
<path d="M0 0 C1.65 0.33 3.3 0.66 5 1 C3.35 2.65 1.7 4.3 0 6 C-1 3 -1 3 0 0 Z " fill="#BF994D" transform="translate(158,31)"/>
<path d="M0 0 C0 0.99 0 1.98 0 3 C-3.3 3 -6.6 3 -10 3 C-9.67 2.34 -9.34 1.68 -9 1 C-5.85554549 0.15014743 -3.29227921 0 0 0 Z " fill="#7F5328" transform="translate(126,30)"/>
<path d="M0 0 C1.98 0 3.96 0 6 0 C5.67 0.99 5.34 1.98 5 3 C3.02 3 1.04 3 -1 3 C-0.67 2.01 -0.34 1.02 0 0 Z " fill="#C29948" transform="translate(83,16)"/>
</svg>
